<?xml version="1.0" encoding="UTF-8" standalone="no"?>
<svg
   xmlns:dc="http://purl.org/dc/elements/1.1/"
   xmlns:cc="http://creativecommons.org/ns#"
   xmlns:rdf="http://www.w3.org/1999/02/22-rdf-syntax-ns#"
   xmlns:svg="http://www.w3.org/2000/svg"
   xmlns="http://www.w3.org/2000/svg"
   xmlns:sodipodi="http://sodipodi.sourceforge.net/DTD/sodipodi-0.dtd"
   xmlns:inkscape="http://www.inkscape.org/namespaces/inkscape"
   inkscape:version="1.0 (4035a4f, 2020-05-01)"
   sodipodi:docname="gill-eport.svg"
   viewBox="0 0 2437.1192 3632.5284"
   height="3632.5283"
   width="2437.1191"
   id="svg106"
   version="1.1">
  <metadata
     id="metadata112">
    <rdf:RDF>
      <cc:Work
         rdf:about="">
        <dc:format>image/svg+xml</dc:format>
        <dc:type
           rdf:resource="http://purl.org/dc/dcmitype/StillImage" />
        <dc:title></dc:title>
      </cc:Work>
    </rdf:RDF>
  </metadata>
  <defs
     id="defs110">
    <clipPath
       id="clipPath124"
       clipPathUnits="userSpaceOnUse">
      <rect
         y="45.152313"
         x="43.002182"
         height="3632.5283"
         width="2437.1191"
         id="rect126"
         style="fill:none;stroke-width:0.971911" />
    </clipPath>
    <clipPath
       clipPathUnits="userSpaceOnUse"
       id="clipPath344">
      <rect
         style="fill:#666666;stroke:none"
         id="rect346"
         width="2446.5732"
         height="3641.582"
         x="-3.6556621"
         y="-2.475286" />
    </clipPath>
    <clipPath
       clipPathUnits="userSpaceOnUse"
       id="clipPath348">
      <rect
         style="fill:#666666;stroke:none"
         id="rect350"
         width="2446.5732"
         height="3641.582"
         x="42.336861"
         y="35.524715" />
    </clipPath>
  </defs>
  <sodipodi:namedview
     fit-margin-bottom="0"
     fit-margin-right="0"
     fit-margin-left="0"
     fit-margin-top="0"
     inkscape:current-layer="layer4"
     inkscape:window-maximized="0"
     inkscape:window-y="23"
     inkscape:window-x="0"
     inkscape:cy="1883.6865"
     inkscape:cx="1950.8617"
     inkscape:zoom="0.19836272"
     showgrid="false"
     id="namedview108"
     inkscape:window-height="1035"
     inkscape:window-width="1306"
     inkscape:pageshadow="2"
     inkscape:pageopacity="0"
     guidetolerance="10"
     gridtolerance="10"
     objecttolerance="10"
     borderopacity="1"
     bordercolor="#666666"
     pagecolor="#ffffff"
     inkscape:document-rotation="0"
     inkscape:pagecheckerboard="true"
     inkscape:showpageshadow="false"
     borderlayer="true" />
  <g
     inkscape:groupmode="layer"
     id="layer4"
     inkscape:label="vector layer"
     style="display:inline">
    <g
       id="g273"
       style="display:inline;mix-blend-mode:normal"
       transform="translate(-45.992524,-38)"
       clip-path="url(#clipPath348)">
      <path
         d="m 1770.6162,3680.7728 c -29.1289,-29.286 8.8269,-69.5988 -6.0652,-111.931 -26.6653,-58.6034 -44.5637,-123.3601 -80.5512,-177.6437 -17.854,-80.8319 -33.4717,-171.9392 -85.6725,-239.1093 -24.5222,-61.2065 -70.7262,-95.3188 -86.3275,-152.7151 -46.2754,-88.8525 -94.4267,-177.296 -140.6034,-264.2281 -43.3064,-72.4978 -73.5855,-136.8996 -123.4138,-211.6588 -42.7451,-70.0702 -90.7959,-134.187 -129.4259,-205.5496 -46.3636,-99.5624 -117.9792,-199.0315 -174.56141,-296.589 -31.139,-88.6888 -105.08405,-154.8798 -141.28119,-242.6839 -70.5418,-91.9818 -101.32456,-211.7171 -184.016,-295.0068 -76.63196,-139.4906 -171.03549,-267.869 -238.52625,-411.9901 -60.71277,-89.32113 -110.3985,-189.24467 -141.83612,-291.39733 -16.15997,-32.94937 -11.90659,-114.96691 22.3896,-95.04422 -2.18819,50.65956 40.91548,86.04845 56.60802,129.36061 56.13952,140.2082 154.97917,263.24704 280.87686,343.78854 71.76866,38.6108 82.33329,121.2789 125.32804,184.7713 79.17663,160.9609 165.09585,317.4637 236.46177,483.7789 43.28898,87.5042 78.62058,173.0706 136.04248,253.5049 36.008,72.9862 94.7074,137.5935 142.2189,199.5699 82.0295,93.4735 176.4431,183.0826 271.5709,265.3333 48.0518,-1.1599 48.2266,42.1025 63.5423,78.0048 53.0405,145.8723 108.8046,291.0261 172.2017,432.3855 21.9277,91.0728 64.2603,169.079 83.8,260.9478 23.8311,58.5681 13.5011,123.6466 38.7492,184 2.2268,59.0557 -3.6181,118.3609 -26.1014,170.1999 17.5857,29.3375 -84.2252,-7.5297 -71.4092,9.9058 z m 181.0504,0.842 c -27.7564,-9.4358 63.8413,-62.9897 32.4298,-107.2843 20.8916,-71.4286 9.5055,-145.9515 12.3492,-219.6639 -9.4185,-106.5894 -19.8447,-190.5183 -30.6891,-293.6644 -16.195,-105.9429 -41.707,-215.9286 -61.1652,-319.1594 -31.665,-104.9572 -43.058,-208.1491 -77.9717,-314.1859 3.0752,-41.004 -26.9141,-86.3455 -24.8456,-132.4836 -13.7561,-99.9754 -30.251,-196.9876 -36.5708,-300.8928 -14.1822,-104.25 -17.5205,-213.4951 -34.4318,-318.7233 -9.6146,-184.9953 -68.681,-356.211 -81.9956,-541.5572 -8.2061,-96.1805 -25.997,-197.78873 -74.6022,-282.87914 -91.5327,-129.06832 -86.0711,-299.61488 -142.1415,-447.51512 -32.8588,-107.47231 -46.738,-221.7597 -72.4653,-327.183909 -54.9738,-75.4530333 107.3912,-45.76063 90.2521,25.809199 25.9048,75.05991 79.5253,144.57892 141.8163,189.3759 26.6726,98.29084 96.9501,179.35444 102.7486,282.39306 32.435,177.23781 21.414,360.96406 49.5991,536.66671 -3.3781,87.4824 31.0829,169.769 53.1363,252.2033 12.1348,132.6181 61.1157,270.5807 133.547,374.7414 66.607,46.3083 82.3967,120.2204 96.4949,194.6722 23.4419,90.6369 -20.2311,183.4567 -11.8572,274.9132 -6.476,99.4801 -1.0267,201.4757 -1.9742,301.4595 16.4515,181.6235 11.6552,363.8779 53.8557,542.9013 9.1812,87.4867 39.088,172.7123 37.2232,260.5547 16.4698,75.1299 6.2121,148.5447 -21.743,214.76 -4.789,49.8076 -36.77,83.5499 -54.6374,126.6682 -6.7134,39.3255 -46.0658,25.6068 -76.3616,28.0743 z m 81.4383,-0.132 c -28.9248,-13.2225 58.9395,-41.1354 56.8644,-78.4895 14.067,-44.5625 20.206,-77.6567 34.8053,-117.1347 28.7834,-70.2645 -9.3594,-152.6177 3.2262,-229.295 -16.9903,-73.84 -32.6738,-149.9828 -41.316,-221.589 -14.679,-42.6661 -12.0159,-91.6172 -28.3851,-133.6916 -0.3028,-77.2641 -12.4691,-164.0915 -13.3119,-239.1525 -18.9359,-157.9651 -16.6616,-312.7991 -11.5718,-468.3457 3.6244,-57.2345 12.0684,-109.6706 18.8687,-164.802 19.3186,-115.4167 -50.9202,-223.8818 -54.4851,-337.6497 -27.9117,-85.3831 -16.9487,-171.2681 -34.7623,-261.0054 -16.6177,-118.4961 -56.0109,-247.2705 -68.8624,-364.0829 -20.0289,-102.59529 -21.0925,-208.4251 -28.9932,-310.59809 5.0905,-87.01728 -10.7891,-176.40257 -7.0725,-264.6628 -12.2018,-140.46166 -48.1403,-292.36201 -32.9016,-424.317511 76.1097,37.918451 124.6559,123.369261 156.3106,200.777861 60.189,185.87309 38.8827,387.1626 60.3986,580.55547 -0.6928,102.01486 23.5962,199.46507 13.6075,300.97007 7.3034,96.881 -6.4978,200.2719 4.3669,296.1582 47.2713,70.3879 15.6208,177.3372 40.2621,261.3955 7.5744,42.0107 24.6309,94.6765 35.1071,133.6284 8.4585,48.7026 5.8198,103.0591 18.806,151.8982 -3.4549,78.304 18.2902,165.0164 20.5418,246.5263 13.24,126.6387 27.055,259.8997 44.1169,386.1005 16.3602,59.5473 7.7545,122.193 12.3149,188.4445 -6.7095,63.1296 -0.9755,119.4712 -4.089,179.8063 -9.8912,90.9716 7.3161,187.3101 -13.457,277.7387 -1.7924,103.3062 -33.3126,207.9914 -66.1521,306.2333 -25.6843,34.725 -34.4371,90.9667 -70.3065,104.436 -14.6383,0.4412 -29.2723,1.1904 -43.9305,0.1471 z m 280.2284,0.204 c -72.7653,6.9998 63.2676,-140.4665 55.3333,-102.8756 54.6793,-53.7661 80.2197,-116.6328 110.2909,-185.0083 10.8163,41.7796 20.9197,115.2317 -4.2903,156.1421 -45.8864,46.7706 -88.8081,136.9941 -161.3339,131.7418 z M 2421,3681.6398 c -68.0062,8.6771 46.9421,-104.3559 39.6434,-78.1824 56.4883,-144.7026 11.8356,241.1173 32.2456,58.5417 5.8162,36.8905 -55.1624,11.6555 -71.889,19.6407 z m -1228.0382,-1.822 C 1086.1384,3665.4271 968.36245,3708.2714 885.13031,3631.0079 767.58842,3559.8339 631.6957,3517.564 516.9103,3442.9918 383.082,3329.7225 242.01709,3211.0655 104.21873,3097.424 45.148381,3048.3725 38.284607,2975.0735 44.19116,2902.596 c 3.255788,-66.4687 121.19347,89.2924 93.18169,70.091 66.76533,80.9564 138.82664,149.8968 207.01499,224.734 100.50831,99.7445 214.32183,190.6127 342.82287,248.579 131.22576,67.2659 291.13441,96.5988 430.24969,148.9655 95.0822,12.2653 213.5451,41.3317 291.5374,82.4773 -71.1557,3.8614 -147.0574,-1.0991 -216.036,2.375 z m 282.408,0.2539 c -66.0786,-16.6193 -117.5096,-88.3369 -179.3698,-125.4955 -55.0519,-40.3907 -117.5278,-86.002 -165.0876,-133.2429 -33.9732,-33.0215 -72.9384,-67.1551 -101.8017,-103.7445 C 976.79085,3281.8843 927.7606,3245.5596 878.53372,3212.4734 814.90746,3159.7952 745.12829,3130.7173 667.41483,3097.4652 568.49641,3053.4268 458.4274,3010.1843 373.00074,2936.3333 272.07207,2849.5475 162.85922,2758.8168 78.669079,2659.186 38.501076,2619.7405 62.605787,2476.8787 50.011535,2503.1532 c 54.738075,74.1754 107.316505,155.8422 164.655045,227.6589 87.27348,103.4961 224.43569,118.334 333.71917,180.4524 56.42272,14.997 103.05374,63.5389 157.22692,64.6188 72.81388,48.0848 141.33584,127.3437 203.72065,196.2761 112.78888,110.5609 244.82528,199.0327 356.96208,312.8406 81.1041,72.0196 161.1224,147.4191 261.0379,193.1913 -17.3145,1.0447 -34.5459,4.1041 -51.9635,1.8804 z m 385.2968,-0.084 c 32.2623,-19.0682 33.0986,-164.4563 31.4803,-140.7209 -14.6059,-81.2412 -17.48,-165.7028 -48.4607,-242.5098 -15.2387,-89.1748 -57.7888,-167.6468 -82.3714,-255.9979 -42.2678,-101.3843 -85.5784,-196.8888 -119.9951,-295.9888 -45.881,-106.7648 -66.9426,-223.9015 -122.4169,-326.707 -30.1177,-84.547 -75.365,-161.2905 -88.8076,-250.7189 -12.2323,-68.4233 -7.9167,-134.4447 -36.8483,-202.0114 -52.3421,-138.3729 -98.0079,-283.8453 -136.819,-431.333 -45.5849,-105.4784 -58.4468,-221.0873 -112.4197,-323.7095 -28.7973,-82.2396 -70.1381,-158.1142 -66.3636,-237.24437 C 1054.5916,843.12443 1027.4863,710.9821 957.35396,593.76051 897.9296,484.0095 868.91135,358.13818 826.01684,245.75326 c -6.71084,-85.30368 44.65312,-88.15439 64.01392,-101.7873 47.3091,-52.832255 60.11634,-7.22738 74.54362,39.36737 22.49144,82.36846 57.54362,171.26683 140.37912,208.63432 45.5627,29.61091 67.1526,87.57333 109.7132,126.75587 68.486,97.09962 53.6703,224.50428 82.9178,335.27647 26.7388,88.27695 -1.7223,108.94355 -50.5942,9.28283 C 1197.7418,785.86154 1150.945,704.74546 1096.1247,631.74443 1048.7797,515.94411 967.38069,416.32202 942.49605,291.87186 918.22942,261.78077 925.44394,138.45036 875.99999,177.26412 c 50.71247,127.02817 76.49845,270.30934 163.63121,383.40254 52.7181,127.20782 145.1144,233.07175 211.9939,353.33333 36.6617,47.74719 85.2726,88.35981 81.7911,156.60721 22.919,126.3662 38.6762,245.7076 61.2203,370.0595 32.7933,181.0128 84.2107,354.9452 139.5237,528.7999 37.2074,158.317 127.9757,313.9103 188.506,467.3788 35.632,83.6056 83.0025,163.1296 132.4455,237.0471 44.8407,71.6762 37.6342,168.1885 63.0228,249.8339 33.419,140.3241 38.417,285.2705 56.6342,426.7241 3.8906,92.932 -11.6265,188.3371 -14.769,277.1773 -20.0414,57.1281 -40.0683,60.1315 -99.3331,52.3599 z m 244.6667,0.012 c 58.1562,-46.4452 78.848,-124.0582 91.8113,-193.2324 14.7595,-48.5637 23.9365,-96.2098 32.9262,-145.1426 1.5129,-36.1306 19.3347,-140.2857 9.9292,-116.9584 14.2808,-33.2862 5.3992,-244.9047 7.8374,-189.6626 10.0729,-60.1399 0.736,-132.28 8.4678,-197.3984 -0.4071,-31.4141 7.7599,-115.8072 1.0281,-92.2067 -9.8047,-101.5025 -31.5511,-212.9663 -44.0201,-319.2288 -3.6505,-50.9956 -12.6275,-110.1566 -20.3143,-155.3701 7.8753,-41.5271 -2.5093,-82.153 -9.6471,-126.6308 -7.7533,-76.3262 -5.2575,-147.5918 -16.2854,-219.6504 -9.5986,-69.4298 -9.1757,-93.0361 -19.0671,-119.1477 -35.5316,-97.59 -43.466,-205.1703 -47.9433,-308.8879 -30.1742,-84.5538 -24.9789,-174.8275 -25.2138,-264.4836 -1.4302,-60.6026 4.9161,-124.7799 2.2071,-185.1175 C 2063.9651,932.53509 2056.4562,808.8176 2053.0994,694.24311 2036.072,527.56089 2041.9283,354.07609 2014.3165,190 c -19.7564,-48.29249 -47.7263,-99.821113 -53.8349,-149.582062 68.959,-1.788582 140.1732,-1.658236 209.2533,1.181467 33.8571,80.480525 42.0837,172.430575 49.5496,258.400595 9.3609,141.05933 33.2221,286.12767 15.3661,429.20898 -10.739,90.51243 -5.8706,173.15872 -30.4453,257.95288 -48.2383,-90.02653 -46.4344,-191.99191 -49.4493,-292.06861 -15.155,-97.72479 -39.9532,-194.66645 -29.4275,-293.78059 -9.3968,-47.10159 -11.6749,-95.08131 -27.1814,-137.76667 -12.2742,-68.61086 -11.1214,-140.40567 -41.1467,-203.621241 -16.5202,11.282742 21.3871,163.710451 12.6586,127.144951 14.9991,104.18505 48.039,208.30821 32.525,317.16645 18.1992,97.60005 39.4451,194.636 33.6043,293.23471 11.6571,90.51237 32.9416,179.86376 66.879,264.74514 50.3077,43.8085 24.2385,123.7941 38.8183,184.035 -6.1663,116.3907 -21.7402,234.0716 -24.9168,348.1994 0.8786,102.726 -0.28,209.4996 8.7337,305.5258 -5.2641,69.6363 -1.7313,147.6436 -0.1729,142.7044 3.19,132.7475 25.3947,263.8321 50.3351,392.0523 12.9465,59.5933 14.8143,141.0285 23.7429,209.3965 -10.5488,103.9392 -0.537,204.5375 4.5219,311.0059 6.8632,95.0369 -16.0393,196.5557 -36.1777,290.4207 -32.5843,106.2889 -12.7772,229.3055 -54.1569,332.382 -38.5427,34.0226 -39.4677,126.5232 -108.0616,102.0617 z m 60.2399,0.419 c 30.3025,-27.2486 66.0535,-66.719 73.0934,-113.4437 32.836,-106.0732 25.5988,-230.0329 58.9521,-340.5822 19.5269,-122.1548 44.0984,-245.8537 22.4545,-368.4774 -10.7491,-109.8588 2.4934,-219.0624 -11.6554,-331.0464 -11.0048,-83.4532 -30.0808,-171.1723 -43.0911,-255.5421 -10.8384,-65.5842 -31.116,-171.9173 -20.7143,-133.5211 -2.6595,-40.9948 1.7125,-87.5857 -6.7556,-130.778 7.2244,-89.9181 -2.7631,-183.9349 -2.2029,-273.5974 -1.9852,-68.9986 -7.796,-154.9456 3.0303,-222.0592 -2.0728,-110.5971 41.6502,-230.8161 14.4898,-342.7582 0.9592,-49.6159 0.3246,-97.5265 -32.1453,-133.962 29.1818,-163.83076 36.1099,-335.79381 40.6694,-503.01683 -5.7974,-93.23269 -29.963,-187.31997 -28.0699,-280.63243 -5.6818,-55.51208 -11.7386,-108.41516 -27.1825,-161.049438 -31.5821,-56.23352 25.6217,-56.648316 73.8528,-45.904781 -0.8696,43.0134 34.2528,86.705349 30.8331,131.729599 13.1071,45.10354 -3.0162,88.89717 1.1176,136.3106 -5.647,68.10071 -1.9149,144.6819 -3.7126,213.66038 -15.5538,91.54524 -1.066,196.74282 3.9256,286.91856 4.885,140.31638 -7.0707,285.27014 25.334,422.00004 21.0517,73.4002 59.0795,133.9062 94.2039,197.222 32.3314,183.1156 -25.769,365.0648 -31.7571,547.8223 -4.2485,153.6019 -16.4251,307.3918 -10.657,466.289 -7.0343,151.4298 -11.0639,304.9204 8.9077,457.7401 9.006,158.1798 11.0205,318.9029 -29.1114,468.2599 -29.8471,105.0327 -101.31,183.2016 -157.1267,273.3333 -17.4416,11.7951 -12.6083,48.764 -46.6824,35.0854 z m 60.7601,-0.057 c 12.058,-48.3826 69.0262,-113.2903 97.2579,-159.0287 71.1615,-117.8316 104.3908,-251.8355 98.6875,-387.9309 17.9856,-144.0344 -15.4379,-292.9089 -19.6197,-439.4024 5.5012,-130.5976 6.6209,-274.2396 5.3804,-408.048 6.3058,-143.3575 4.7832,-278.7205 23.3754,-425.5795 10.2468,-91.2134 31.297,-175.1092 33.6856,-266.615 3.601,-88.9332 5.1848,-187.3721 -59.773,-256.1781 -30.4098,-64.1994 -72.4333,-135.6609 -63.983,-214.1912 -18.9254,-47.0291 -23.9795,-235.83678 -9.349,-182.27592 11.3759,-102.1843 -12.5517,-208.67043 -12.1036,-312.61655 5.7065,-105.32548 7.8323,-211.60263 11.3258,-317.4175 -7.9525,-76.86697 27.6396,-153.19805 47.4445,-229.131831 0.5878,-60.795609 111.661,-46.469607 113.5069,-43.761914 60.7316,-7.517769 30.1395,74.532315 37.1651,121.126745 0,1174.06107 0,2348.12217 0,3522.18327 -36.6947,1.3045 -24.0837,-116.6102 -25.8309,-83.4513 -1.8489,-105.4342 -7.8485,-214.6536 4.7042,-316.7096 -19.9243,-130.8942 -2.3463,-269.617 -8.6698,-403.2306 -2.4309,-527.2159 -7.0518,-1053.9951 -4.3498,-1582.1248 1.7862,-362.46424 0.3878,-730.67123 3.6694,-1094.64457 12.0818,-40.60847 -7.518,-176.583172 -14.2524,-79.33449 -5.2359,46.86215 0.7756,85.1321 1.5911,134.91749 2.7594,107.67815 -3.7196,221.97775 -3.3522,329.93418 -2.4077,151.53235 -3.8245,309.69133 -6.3119,468.26219 6.8121,238.5093 -8.1133,476.3243 2.0911,716.168 -6.3155,509.1133 6.1229,1022.1772 5.4352,1533.8602 -30.7768,83.1965 -61.5985,180.2824 -124.0464,248.172 -40.0001,46.6724 -75.1248,119.1035 -133.6667,127.0491 z M 2262,3680.1236 c 16.183,-32.3102 31.1223,-5.4273 0,0 z m -648.3048,-2.1538 c -32.7709,-1.014 -100.2037,-42.2005 -37.3844,-16.3589 36.5006,14.1257 67.6452,5.1192 11.5802,-12.0804 -21.7765,-23.5508 -66.576,-10.2935 -94.7103,-37.9227 -118.205,-48.198 -210.3761,-156.0476 -298.2156,-244.9412 -95.1203,-86.0671 -201.12988,-168.775 -301.86839,-253.3333 C 806.85265,3033.231 723.68594,2939.7081 646.50808,2854 576.18906,2791.2191 485.62517,2743.5065 438.66666,2661.6922 397.1288,2580.6371 349.48498,2519.4385 293.38353,2451.3788 233.02448,2359.73 144.37877,2275.4361 79.999999,2188.7101 29.977318,2117.4866 42.936614,2028.9861 45.573662,1945.7104 c 35.488878,37.4743 63.909598,103.6344 93.204178,141.5754 32.36991,38.3914 55.31407,86.2257 83.02573,125.3742 21.34251,28.7 27.2124,59.0538 50.66927,75.709 37.03351,61.2803 92.86867,109.1452 137.66872,167.3037 62.52704,88.3145 174.09731,117.1891 257.59135,183.0182 85.40076,61.6983 202.21306,87.6201 249.89596,190.5332 74.19957,72.2967 111.00033,170.1359 173.78293,252.1092 22.2146,44.3032 52.6536,85.4975 79.9215,119.1097 7.904,25.3356 54.22,53.3331 70.0263,91.5756 65.2487,93.9628 154.976,175.5888 249.3071,238.6919 52.8961,35.1655 105.7302,78.816 144.7784,118.362 70.9026,26.5362 32.1165,38.4089 -21.7499,28.8973 z M 251.8894,2358.7632 c 19.82146,-33.7504 -26.34954,-14.5475 0,0 z m 1443.0852,1320.283 c -29.5059,-42.146 -91.651,-135.6193 -66.4193,-90.512 -72.3177,-25.8931 -133.0209,-93.0673 -203.392,-129.5187 C 1286.0191,3344.5057 1206.2357,3186.1323 1100.6757,3044.4322 1020.2571,2926.1148 938.29103,2807.474 846.66666,2694 706.31317,2509.7343 549.1824,2341.2939 411.46554,2154.5388 336.62514,2061.5435 266.71067,1969.9338 193.98726,1874.424 138.47103,1795.4558 93.228979,1703.6924 51.196945,1619.8728 38.856958,1575.5744 22.990907,1356.3421 78.575856,1502.6667 127.69,1600.0281 195.86063,1677.292 251.25628,1768.3255 c 54.75799,64.9695 92.34578,141.3196 153.46614,194.5785 22.58269,33.313 81.9645,119.7135 12.2944,37.096 81.06191,95.888 137.16857,212.0811 223.01656,301.1553 92.49947,107.1864 169.7838,230.3094 251.29449,341.328 73.04768,85.8077 153.32133,169.6607 236.36003,240.9869 72.0513,53.9073 146.65,96.3525 230.7983,131.5647 65.7444,21.1293 75.1647,104.7104 110.8476,155.2721 73.3545,72.3934 133.4762,156.3826 196,239.7679 29.834,87.1427 70.6637,177.6723 71.3125,269.2584 -13.8915,0.056 -27.7847,0.4028 -41.6717,-0.2871 z M 407.99999,1984.7294 c -3.08187,-20.4497 -8.79385,2.7332 0,0 z m -24.85116,-37.3961 c -12.28412,-5.7794 3.70118,6.9728 0,0 z m 366.93401,1727.6389 c -69.53938,-0.5075 -142.54529,4.3067 -202.08285,-38.5324 C 408.22707,3579.1218 282.85282,3503.2702 150.386,3427.8497 90.304224,3389.8389 23.407915,3349.3115 45.521127,3266.4265 c -24.032824,-146.3493 126.759513,38.6838 184.317283,61.0095 98.85804,68.2729 215.54122,105.325 317.11502,169.8973 119.45064,51.1137 240.92888,104.1746 349.23478,174.798 -48.13695,5.1225 -97.59969,2.3044 -146.10537,2.8409 z m -373.41618,-1.3104 c -42.01867,-24.7449 -184.9886,-119.8419 -145.38144,-87.7914 -50.81149,-41.6114 -93.61093,-99.6151 -161.650494,-115.8294 -64.3119735,-68.3959 4.740315,-102.2725 59.736934,-29.5344 114.16509,68.6825 230.82539,134.411 348.1596,191.4634 73.6815,24.9137 110.80175,56.0444 -3.36108,41.5957 -32.49792,0.074 -65.0152,0.4764 -97.50352,0.096 z m -297.999994,-1.5365 c -69.4746843,-9.4851 -55.01407,-224.0658 -32.34416,-177.1807 67.806144,12.7195 127.876404,72.4298 180.344154,121.1999 64.48675,37.3039 138.90936,69.3814 3.96064,56.5754 -50.65237,0.026 -101.31487,0.3759 -151.960634,-0.5946 z M 1457.3333,3625.7046 c -53.2035,-19.5653 4.144,-19.3635 0,0 z M 1320,3613.3333 c -90.2606,-27.1068 -174.5238,-64.3841 -269.0747,-82.6658 -57.88429,13.5767 -133.20257,-40.5538 -197.59198,-47.2147 C 672.1891,3436.3998 508.08966,3327.4633 381.96401,3194.6092 264.78455,3091.7497 169.33545,2964.9496 61.775839,2851.5901 c -57.4684062,-113.4099 41.328731,-30.6744 77.701931,22.1964 133.22701,123.5796 274.3798,244.461 407.78244,359.5471 134.75075,113.7856 306.14388,152.9974 477.40649,176.5095 90.4797,-13.6837 118.2473,84.6253 189.5062,117.5629 32.7949,20.5606 98.4649,67.9681 105.8271,85.9273 z M 481.94517,3453.2446 c 5.90159,-2.4932 6.14387,4.7849 0,0 z m 763.84823,-1.9688 c -3.394,-8.0053 9.5876,4.1205 0,0 z M 1233.3333,3438 c -12.0358,-10.8451 16.9822,7.271 0,0 z m -774.99637,-5.1447 c -17.14942,-14.9413 25.84013,10.8872 0,0 z m -26.0036,-13.018 c -23.37779,-13.2162 23.15253,5.4672 0,0 z m -29.33334,-13.4028 c -24.04898,-14.8748 27.65647,9.1774 0,0 z M 1036,3383.1717 C 892.71335,3356.6469 739.23476,3344.7854 617.17411,3256.8084 463.2984,3143.684 325.04664,3010.9232 181.32088,2885.31 141.42428,2827.3377 55.578896,2785.2206 46.580805,2717.3333 c -14.589344,-101.8796 35.708513,-6.8822 73.085865,29.2776 46.49797,46.2399 92.17108,97.3306 149.95741,128.5315 101.05792,103.2884 221.93457,183.8982 359.04258,232.8901 117.87168,52.5022 234.68479,115.4199 329.3209,197.3009 26.71353,11.5255 105.34444,68.7132 78.01244,77.8383 z m 128.6118,-7.2604 c 5.9017,-2.4934 6.1439,4.7851 0,0 z m -773.94514,-2.6572 C 257.10661,3334.2535 154.79731,3237.8311 53.522563,3148.481 c -35.33319,-98.0578 28.408815,-54.5858 75.013827,0.054 90.81669,73.6126 191.15324,147.2232 267.90804,225.9896 z M 1144.6667,3360 c -50.9176,-34.1328 40.4894,13.0907 0,0 z m 500.8703,-12.6055 c -37.969,-45.2422 -68.4653,-86.1634 -100.8704,-134.1137 -43.8348,-20.0681 -53.672,-65.375 -70.0091,-100.984 -35.4487,-19.6984 -52.931,-104.1049 -40.5036,-84.8476 -38.3405,-18.0436 -48.8243,-65.6121 -70.5544,-94.856 -29.3408,-69.9226 -71.3952,-139.7208 -106.7568,-205.8527 -18.1822,-40.9249 -36.1183,-96.8798 -75.5185,-136.6611 C 1122.167,2490.5533 1044.6425,2403.1669 969.46601,2314.3705 890.89732,2245.8079 807.45326,2173.7568 769.21357,2070.0665 721.6277,1972.4932 650.44232,1892.0267 581.22869,1816.2299 510.49535,1704.2907 449.21501,1594.703 386.31257,1480.5535 328.89453,1380.9228 279.89817,1267.7008 201.33333,1178.4551 158.94692,1112.4224 113.39299,1035.9029 83.101387,964.75279 c -5.438695,-22.93774 1.008921,-87.53078 23.565283,-29.49175 24.54892,75.45146 89.25445,123.40446 122.66666,191.16496 37.90333,81.348 78.23014,159.9626 118.45079,238.3759 65.59346,96.0618 146.50127,181.0592 221.40177,267.6353 41.04026,51.8464 358.52683,257.1853 211.07647,166.3477 -66.15409,-96.6188 110.96541,132.3349 46.4043,69.8064 87.22999,109.5999 139.30834,246.2728 220.00004,360.7973 42.7423,73.485 76.7516,145.1265 121.3333,215.988 72.4426,77.5727 110.1406,182.552 168,268.9444 52.6846,96.7562 102.6946,197.3965 154.6666,286.8172 53.6066,115.5482 151.0474,217.2474 159.116,349.8618 z M 1327.9574,2967.2821 C 1197.6075,2917.6473 1093.953,2820.2696 994.83465,2721.636 897.55325,2619.6437 822.54503,2490.928 734.93939,2383.0512 675.18629,2290.5631 583.78311,2217.3094 530.65922,2117.466 481.39318,2022.2054 419.57556,1935.9547 346.55369,1856.3994 296.50168,1784.2553 237.76563,1721.0481 195.89078,1641.9161 141.36753,1563.556 91.913872,1482.9158 49.420812,1398.789 c -9.701043,-49.2756 -19.64134,-155.0152 28.961379,-64.6285 31.558349,51.7814 81.569909,95.8609 108.847129,148.356 59.1472,59.6825 94.78945,140.7021 152.0745,202.2215 27.69112,60.4215 91.74644,109.8744 152.69614,138.8155 55.94994,5.3004 99.60677,18.517 126.69903,72.5514 102.97859,90.0027 139.90885,221.5551 221.24545,328.0144 38.17513,31.3134 72.5011,76.6639 111.82914,101.6659 63.02532,77.0684 130.63502,149.8908 183.44212,234.2009 26.6947,44.4315 62.7382,84.7536 86.3326,134.0139 13.5814,62.4249 68.6883,106.5773 87.0089,171.3333 -0.578,33.5936 83.4731,100.4211 24.9265,103.7405 l -3.9073,0.157 -1.6173,-1.9487 z M 672.43372,2941.3289 C 562.27375,2887.3431 452.11295,2838.7681 337.33702,2794.0044 226.80184,2733.7573 170.84269,2616.526 94.501919,2522.8038 61.965646,2483.0022 39.833377,2446.0973 44.207371,2395.0166 c 9.496498,-63.0533 -30.767443,-290.2546 48.969868,-146.2814 103.281841,95.665 177.530491,217.8258 265.110101,325.8194 32.49588,88.7074 92.61158,160.8514 167.16683,214.4002 56.7609,48.4559 103.20886,98.2994 151.88865,151.3785 l -4.90917,0.9956 z M 808.2807,2688.5798 C 719.37295,2653.9768 653.27817,2589.1593 571.33986,2546.6793 519.45457,2519.1559 457.13088,2482.3036 422.99999,2431.0424 301.87287,2303.926 218.73378,2144.0769 115.7169,2005.235 80.65049,1949.6581 66.635931,1882.7428 46.666575,1823.0711 c -0.21959,-40.6382 -23.366579,-227.4038 28.005075,-108.618 59.69503,142.0154 162.43987,258.8447 257.1446,376.6251 59.31914,91.8078 126.70714,173.7687 197.51708,252.7752 98.78112,112.7527 190.8732,229.7954 285.16352,345.851 z m 1036.6082,-76.1354 c -1.7944,-7.9798 7.9798,1.7944 0,0 z m -7.9927,-12.918 c -78.5785,-106.6241 -115.4155,-237.1799 -174.2296,-357.4191 -52.3174,-99.5981 -84.1642,-200.7781 -118.751,-305.718 -16.7803,-64.2784 -40.6252,-143.5401 -63.345,-211.7226 -32.8404,-132.9752 -63.2702,-269.7226 -86.3906,-402.1259 -6.2689,-57.1008 -15.573,-130.0948 -28.9567,-191.454 -13.5458,-63.9086 -8.6567,-118.5068 -29.5452,-175.08681 C 1316.7435,831.85243 1294.794,709.75904 1273.9893,586.64474 1240.5613,445.31131 1197.0398,307.81142 1147.209,172 c -3.7453,-49.35523 -62.8543,-175.0994292 32.9319,-127.333334 28.7489,114.022024 77.6374,221.290694 102.7433,335.669834 49.7985,152.68742 130.7767,300.75783 234.6107,423.48641 77.5331,104.92463 105.5902,237.68029 113.8943,367.10639 11.6472,122.8 44.1322,239.245 61.2856,355.7404 4.4523,63.4754 18.3153,131.596 23.8514,199.3303 7.4646,101.6658 19.2752,206.51 31.1015,309.376 16.47,163.1682 37.357,331.6738 84.2225,489.2454 -1.5587,12.7982 27.9952,82.1044 5.046,74.905 z m -301.9557,-54.1583 C 1378.2636,2401.0916 1222.364,2253.6331 1113.5088,2070.4548 1063.8749,1986.0195 1014.8494,1896.6857 973.4917,1804.8185 891.14885,1611.7741 785.39179,1427.8998 693.33322,1238.559 596.79551,1012.5675 466.26025,802.30672 375.93688,573.33567 c 18.05492,-45.34847 18.98409,-78.11469 28.59692,-8.58436 50.50018,106.95064 115.0714,205.6968 174.13276,308.22234 50.76927,71.40113 121.64183,125.49106 195.81246,161.37825 98.93813,208.6406 203.20266,412.0583 296.86938,622.3148 79.7382,160.4686 153.9242,319.3363 242.2362,475.0463 29.802,66.6193 80.1513,123.886 100.7678,191.651 37.3043,57.4182 57.0812,129.5663 104.3293,178.439 21.2256,-2.9711 40.8225,46.9023 16.2588,43.5651 z m -13.3351,-68.5952 c -63.9264,-98.4774 15.0289,-0.6745 0,0 z m -23.4628,-44.2153 c -4.1788,-13.2295 6.8931,7.2247 0,0 z m -5.3646,-12.0818 c -3.7307,-7.9931 8.9189,4.0884 0,0 z m -5.5327,-10.082 c -57.591,-99.4965 -107.2838,-206.4634 -165.7758,-307.0025 -91.9489,-162.743 -167.1536,-333.8475 -256.7797,-500.8794 C 1025.577,1493.1036 963.13228,1392.2857 920.20688,1283.0103 908.34872,1243.1288 828.49375,1066.9572 862.20362,1140.5072 811.9527,1015.3914 776.98016,884.66232 724.791,759.99999 684.97997,644.13763 644.594,524.15057 608.38914,407.69509 c -6.03972,-33.09076 29.21063,-112.8256 54.28822,-56.07125 7.76799,88.94104 64.42905,163.08727 106.72341,236.63087 37.87457,83.41987 101.8951,146.93648 180.93258,195.20684 77.73145,60.33737 96.95105,159.45779 108.19405,250.53845 24.8944,78.8259 69.2722,148.6428 86.8059,231.1562 43.3744,76.7195 42.1575,170.0819 82.0202,244.7458 28.8329,99.4731 57.0869,203.9394 90.7056,302.5499 24.9439,103.3604 88.2815,208.1822 79.9481,319.8755 18.636,72.8087 26.6086,149.5099 71.325,212.1907 -1.9974,13.6128 36.1078,72.8795 17.9131,65.8757 z M 44.566545,1860.7424 c 2.806991,-18.146 4.614931,13.1391 0,0 z M 529.6873,1809.1795 C 400.18419,1772.1655 339.05146,1641.6093 265.21312,1539.9669 191.8338,1435.2159 101.61225,1340.0839 42.456534,1229.4919 45.754398,1169.093 12.403686,971.8247 103.3573,1112.7674 c 64.60709,33.286 100.29593,105.0194 140.97688,163.8993 86.00931,116.5272 135.86288,253.6808 215.66581,374.8281 14.03003,45.9781 97.25156,138.4841 69.68731,157.6847 z M 1972.2125,1751 c -80.6202,-87.8908 -119.071,-203.7039 -142.8293,-318.4645 -8.5001,-108.692 -68.5694,-207.8149 -64.0483,-320.7011 -18.4174,-60.3016 -8.1465,-139.3604 -23.4728,-193.28377 0.9449,-68.23786 -12.3122,-140.24281 -10.4076,-205.57146 -4.523,-73.71231 -15.547,-146.91269 -34.3859,-215.01319 C 1684.391,427.16713 1643.6711,365.52783 1619.1762,300 c -18.37,-70.71462 -21.4017,-144.6923 -18.1004,-210.030318 -17.123,-50.355211 27.2153,-63.528125 71.5155,-52.81209 C 1861.0874,-18.422565 1786.9147,187.58104 1817.0737,302 c 9.9375,113.74705 29.7707,227.88084 26.0104,342.11063 10.3104,111.76048 -2.4786,225.06222 18.7525,336.55603 21.4357,214.36274 91.2287,418.30484 100.6969,634.66664 2.2584,29.5866 33.5945,143.8641 9.679,135.6667 z m -1219.78383,3.2861 C 677.97577,1678.6409 584.58578,1633.8263 523.47403,1543.11 434.80215,1458.2875 365.6555,1356.0132 317.75093,1243.6628 272.13779,1164.0757 235.02478,1081.5074 200.03709,1000.2166 164.01887,958.61415 163.57428,874.71692 124.66617,849.33314 c -23.72432,-49.48211 57.03798,98.72736 56.40323,58.07583 50.09274,62.38405 108.32288,121.11793 172.26393,165.71843 51.46768,111.0161 122.34915,214.107 183.82378,321.9929 71.08624,107.1676 152.58033,209.5434 200.63156,328.3836 0.0648,6.2699 29.69491,37.5962 14.64,30.7822 z M 612.66666,1141.3333 C 532.90706,1088.8698 463.52378,1025.0959 413.29349,941.33332 366.78831,870.10553 331.81863,793.53184 292.16368,718.9819 c -28.02874,-41.58618 -12.82231,-82.86323 18.9394,-116.37137 48.57139,-74.10599 36.03695,3.17542 66.56412,43.83102 76.81356,155.28911 151.73529,315.03078 234.93362,468.79075 -5.53693,12.4776 26.59933,47.0087 0.0658,26.101 z m -493.4165,-48.5019 c -40.199831,-35.0921 -83.140847,-72.9888 -72.660406,-116.83141 60.920966,-109.456 -24.650589,31.82971 47.245981,67.88801 8.880585,9.9097 33.115675,54.9452 25.414425,48.9434 z M 802.22818,1044 C 750.41703,952.64072 712.04372,854.74687 645.79421,770.77777 596.93495,661.60059 486.43405,560.76804 495.57359,438.21773 c -26.54333,6.93384 61.91882,-20.99167 74.17384,-52.9906 21.15739,54.0763 55.07783,147.27701 78.21115,217.38137 31.1214,119.33511 91.05089,229.69164 124.04141,347.85088 -0.0979,23.10608 43.5543,96.07832 30.22819,93.54062 z M 181.75954,1025.6667 C 156.70292,978.61946 92.299023,832.42517 103.66079,877.13921 c 34.1636,27.17734 44.56794,83.2241 66.68941,121.18866 0.57544,3.19023 29.48186,38.64383 11.40934,27.33883 z m 574.69937,-9.6618 C 683.90079,948.75498 600.24282,879.80605 553.94061,786.66339 502.88202,708.61062 460.1862,625.20239 425.5787,539.29637 c -21.00842,-26.85556 46.83275,-30.60429 39.41199,-66.30028 14.41682,75.13572 55.64637,148.00343 105.82606,207.07533 56.11432,117.9499 142.68944,213.59413 191.23371,335.90178 l -5.59126,0.032 z M 444.52874,494.27864 c 44.74796,-52.15569 -25.72287,15.96755 0,0 z M 285.2031,985.42167 C 223.49102,937.51152 191.95403,863.96887 147.7329,801.99999 168.2316,798.34615 210.85475,684.5975 212,781.08945 c 16.51508,80.14835 65.98451,148.65733 94.55737,224.24385 z M 42.199657,929.1285 c 19.672849,-30.91763 -20.560946,-67.69181 10.975546,-90.62659 47.609347,-51.19393 -21.347876,45.79653 25.491464,-8.74661 19.344577,-26.95771 -25.697024,-14.46556 20.265237,-44.47405 -16.34088,49.23892 36.038446,-52.74055 40.891836,-42.02674 36.38248,-29.50498 43.69882,-75.52339 87.78079,-108.18056 23.47071,-43.99609 55.721,-67.32107 97.69041,-103.91255 17.23019,-28.82617 65.21373,-84.46053 51.19192,-57.50902 24.19735,-17.17269 89.66614,-89.17533 71.07032,-64.8322 C 504.69154,363.3792 568.53743,305.3289 636.4927,262.14665 696.55882,226.31153 755.52209,197.08955 812.8684,146 864.63067,125.97371 913.91014,69.618016 971.77259,43.692118 1063.1575,17.645487 1076.4011,45.471828 993.33332,72.860485 917.69199,104.53675 846.17826,156.32531 787.56903,198.99538 589.21534,355.52894 371.21911,491.36259 210.90826,691.02974 145.69677,761.29539 91.082081,838.21265 45.333333,919.75034 c 0.610037,5.56636 -1.053191,40.13546 -3.133676,9.37816 z m 15.615844,-53.79517 c -0.355811,-18.27944 -11.959447,9.84147 0,0 z m 2.184498,-19.79335 c -19.734992,-24.58218 -9.562447,18.13083 0,0 z M 488.66666,384 c -3.4175,-4.93853 -5.1257,4.78027 0,0 z M 41.534867,834.24283 C 36.564205,569.4514 34.901705,299.46211 42.336862,35.524714 137.86697,18.25727 245.29657,35.661349 344.31453,29.435041 544.72232,33.752875 746.71577,29.108264 946.09799,38.727091 794.38958,146.38997 627.06284,239.48751 485.10955,362 335.4596,494.88393 164.31357,616.61098 63.999999,793.92774 68.829132,811.82068 41.3275,825.59854 41.534867,834.24283 Z M 1001.7357,800.45039 C 920.13363,719.5045 814.30841,660.37135 770.33332,545.31629 724.94704,474.43524 682.91698,390.89428 668.86695,308.66666 c 39.45015,-11.74089 42.60529,-42.87471 77.2592,-59.08508 49.27791,-67.33842 57.91214,10.96772 79.48583,60.41836 31.08559,86.01287 44.81755,179.26354 96.60563,257.48059 22.69038,78.02731 94.06539,155.52803 79.51809,232.96986 z M 178.16513,743.28286 c -3.70918,-8.64088 10.96373,3.965 0,0 z M 1481.1546,722.23119 C 1440.8551,658.36101 1396.0165,597.24584 1366.6666,525.3912 1302.6179,418.03283 1286.3062,284.45229 1242.0261,170.22697 1219.1647,104.0754 1167.5383,4.1583463 1281.1466,35.854907 c 79.2399,-16.437786 94.6511,199.561213 77.8031,153.939653 25.8822,131.59307 66.148,258.93936 97.0503,388.98805 13.2933,49.01391 16.2662,99.44561 30.5795,147.57057 z M 129.33333,710.82991 c 4.33247,-11.01534 8.6955,3.58793 0,0 z M 164,672.25483 c 7.98558,-18.09215 4.18621,6.40141 0,0 z m 10.90726,-16.452 c 39.87517,-44.94912 46.50281,-26.86982 0,0 z M 1214.4698,471.05816 c -91.9785,-76.68845 -119.3891,-208.13276 -179.8031,-308.99685 -53.31189,-53.70441 24.9374,-162.33359402 64.4865,-96.995097 15.9913,134.566527 87.4961,251.155477 115.5631,382.267117 -1.4566,0.57044 13.4008,30.35015 -0.2465,23.72483 z M 529.36298,408.8151 c 8.1455,-22.41915 12.29063,8.70775 0,0 z m 49.59457,-35.68777 c 10.60687,-4.26255 -3.41712,5.82463 0,0 z M 1102.5072,351.39614 C 1003.1848,313.0523 995.84854,191.18625 956.77083,105.33333 c 85.00477,-60.950392 23.71522,75.35873 83.01877,106.36867 17.6652,47.41446 42.865,94.24309 62.7176,139.69414 z M 1992.374,251.00228 C 1966.6774,177.3465 1924.6953,92.885293 1846.2901,58.606458 c -71.2467,-27.106154 91.8288,-22.113575 69.9063,-20.144707 46.9509,29.619689 41.2327,99.058629 72.4005,143.579449 13.7552,20.65312 2.3537,60.43098 3.7771,68.96108 z m -413.3095,-1.62479 c -67.8543,-50.92156 -103.1681,-136.46044 -129.6729,-210.746816 135.5813,-48.939881 143.8562,52.223173 133.665,158.986416 0.7504,8.65369 8.8249,64.9458 -3.9921,51.7604 z m 750.2596,-103.04416 c -33.5504,-52.619398 -39.4545,-135.116836 27.6615,-97.666664 8.0749,23.705109 -16.1502,122.179544 -27.6615,97.666664 z"
         style="fill:none;stroke-width:1.33333"
         id="path277" />
      <path
         sodipodi:nodetypes="ccccccccccccccccccccccccccccccccccccccccccccccccccccccccccccccccccccccccccccccccccccccccccccccccccccccccccccccccccccccccccccccccccccccccccccccccccccccccccccccccccccccccccccccccccccccccccccccccccccccccccccccccccccccccccccccccccccccccccccccccccccccccccccccccccccccccccccccccccccccccccccccccccccccccccccccccccccccccccccccccccccccccccccccccccccccccccccccccccccccccccccccccccccccccccccccccccccccccccccccccccccccccccccccccccccccccccccccccccsccccccccccccccccccsccccccccccccccccccccccccccccccccccccccccccccccccccccccccccccccccccccccccccccccccccccccccccccccccccccccccccccccccccccccccccccccccccccccccccccccccccccccccccccccccccccccc"
         d="M 0,1852.6655 V 0 h 2529.3333 c 15.9455,67.103161 -47.5719,34.220668 -87.0944,42.781139 -99.9209,-27.363558 -63.5385,72.725351 -91.6881,135.064191 -23.9481,61.23516 -20.5504,124.26393 -20.9068,188.4684 1.0226,121.75357 -17.7999,242.96562 -4.3844,365.68626 10.0475,71.42108 8.846,146.27362 9.4413,215.41328 7.6957,54.62963 23.5329,229.39153 6.673,181.28083 -3.6757,99.0631 47.9408,184.0496 100.346,261.8667 39.9859,98.1368 22.0036,213.9362 13.0567,317.8513 -28.7701,134.2995 -34.9175,282.9928 -42.9204,418.8064 -0.1191,106.7471 -6.9906,220.5693 -3.357,331.6779 0.4911,133.5954 -14.7293,256.9423 6.0436,390.4369 18.3608,134.0511 12.726,274.0025 2.8203,403.6071 -13.631,102.0902 -51.5451,209.423 -108.8685,289.6268 -25.9317,34.9802 -128.0045,181.911 -42.6623,117.506 42.8401,-29.5941 83.6393,-90.181 114.0748,-135.4066 55.675,-63.581 79.7311,-153.2757 104.1435,-227.7628 0.8159,-507.0228 -11.8852,-1012.7523 -5.2537,-1518.7811 -8.6925,-218.5152 0.192,-439.9877 0.3259,-659.2309 -4.8111,-149.04053 1.0892,-304.38465 3.4664,-450.13865 -4.3631,-121.04662 7.9831,-245.81233 2.374,-371.61177 9.5564,-54.14696 -10.6699,-110.87875 0.3484,-161.80921 -4.9017,-92.741135 26.5683,-24.29311 14.8876,37.3345 -5.9618,335.88518 -1.9793,674.66484 -4.682,1010.08603 -3.2399,541.1082 1.2459,1081.9012 3.1853,1623.9929 4.1144,151.1447 -3.583,307.6795 4.9023,458.365 10.1617,66.2656 -13.6617,135.2861 -2.2714,205.0393 15.7472,58.8371 -23.6468,169.4833 15.9935,203.9918 43.9665,39.5376 -111.8482,29.8851 -77.7264,31.1899 -813.2023,-3e-4 -1626.40459,-5e-4 -2439.6069,-7e-4 C -0.00213298,3087.7779 -0.01493379,2470.2078 0,1852.6655 Z m 1812.5,1828.6474 c 52.6876,15.6441 63.4399,-120.7843 49.5006,-87.2057 26.694,-84.9958 -23.5718,-169.1179 -21.8146,-253.8906 -28.5539,-78.3004 -47.21,-155.8742 -80.8918,-230.8829 -38.0216,-140.0718 -115.94,-265.9075 -154.3952,-406.7456 -32.0704,-42.8638 -27.929,-121.8533 -68.5839,-146.8435 -75.3309,-32.3727 -130.2639,-115.9385 -197.5656,-167.763 -58.621,-62.892 -115.7163,-117.6008 -161.9022,-188.3308 -62.3107,-70.6005 -101.0645,-156.7728 -151.514,-234.9447 C 974.37714,1856.5563 921.92179,1741.8305 868.86266,1631.1023 797.61842,1485.8136 718.94816,1344.2037 649.82472,1198.3416 580.95971,1145.7652 501.34993,1097.8254 450.20319,1027.6503 383.78429,957.40301 335.95825,870.19758 303.04537,780.66666 c -18.37516,-36.76274 -57.55908,-77.39434 -57.74232,-94.85581 -34.80503,59.1338 -3.971,97.12494 -2.6364,113.23233 C 287.7111,933.62665 369.76244,1050.422 433.90259,1176 c 63.47086,105.4148 128.91794,212.7978 192.88652,317.7049 84.23732,92.8875 120.15439,217.5425 193.21086,317.5926 38.18678,78.7381 103.36248,142.976 132.75741,223.6551 50.69082,87.7735 111.54182,174.3389 156.08682,262.2379 38.181,75.3101 85.9962,146.879 135.852,218.1428 39.066,69.6772 79.0772,128.3188 109.8944,193.6764 50.9154,79.8313 88.6459,167.2429 136.0811,248.9903 26.8022,45.5226 35.5479,87.4329 65.3587,124.0157 55.3734,81.396 106.5714,170.0768 118.0329,270.6509 5.9288,51.4306 44.5521,85.8834 57.9205,136.643 12.3696,38.1678 22.6266,159.5321 32.5468,119.9701 8.3812,38.4969 -38.5551,86.7125 47.9694,72.0332 z m 185.1666,-0.7644 c 36.6635,-13.5865 89.764,-140.8221 70.3331,-106.2457 11.979,-47.0714 33.399,-94.1676 42.4431,-142.6621 -2.569,-104.7333 -7.0253,-206.3528 -31.6893,-307.4893 -26.9127,-152.2608 -54.0005,-303.824 -54.1453,-458.9146 -15.5687,-145.6212 -10.9849,-291.3578 -12.3969,-435.8327 4.0986,-79.133 13.5939,-159.749 22.5213,-238.42 -4.5457,-65.7769 -21.8745,-138.1931 -49.2231,-196.3192 -92.0382,-81.2116 -138.8171,-200.3023 -170.0663,-319.9982 -7.2055,-90.1793 -37.1694,-173.3719 -59.9974,-259.3334 -21.8949,-168.3148 -36.4589,-335.56248 -42.6406,-507.33331 -13.7569,-101.71323 -18.1597,-206.03002 -70.7326,-293.33333 -24.3284,-42.29238 -35.5483,-100.87401 -65.4049,-133.2699 -81.1142,-61.07651 -116.9747,-155.01312 -156.8324,-243.776795 -110.9972,-36.2792019 -57.9329,42.66499 -43.9115,99.172545 23.268,197.56433 100.6766,384.68233 133.4695,580.6585 25.0999,82.36691 87.0557,151.87208 107.393,236.56519 36.7989,127.5851 34.9512,265.2376 61.8146,394.1816 32.2376,133.5168 50.7228,265.4966 60.0857,403.7866 13.3379,69.864 14.6941,150.8714 22.6465,222.6607 10.3479,95.7067 21.179,194.2055 35.3739,285.3548 11.1523,93.9945 35.8826,172.8671 56.2748,264 16.3575,80.5802 36.0334,156.1384 56.1084,237.9625 16.3441,89.918 38.7791,187.321 54.1784,281.9669 7.9142,67.4469 15.7645,133.4769 21.4502,196.7372 16.5296,109.6172 16.4348,217.197 4.3875,325.3334 2.8061,43.7631 -80.2825,141.6423 -49.1079,115.2294 19.2158,0.7903 38.4765,0.7691 57.6682,-0.6808 z m 91,-1.7715 c 39.1851,-60.6888 62.3239,-105.6512 65.8624,-114.1358 24.3161,-99.8427 61.627,-199.8742 58.7286,-302.6412 24.1318,-93.2634 -0.8131,-194.0835 16.7531,-287.0563 -8.2193,-79.7897 5.1885,-160.6275 -1.0439,-244.2771 2.6673,-49.3038 -5.8392,-92.9366 -17.0318,-140.788 -9.1286,-117.3909 -26.9643,-235.8965 -37.3301,-351.302 -3.8345,-73.6813 -18.1107,-153.7081 -21.6969,-225.2433 -1.1323,-42.4397 -10.6987,-87.2581 -11.5739,-132.4492 -5.3286,-42.8548 -17.5981,-81.3018 -30.234,-127.161 -35.5289,-93.6968 -6.0437,-215.52 -46.4884,-304.8256 -20.7653,-61.5026 -3.2998,-142.8359 -7.819,-210.8222 -4.0049,-86.9372 7.9468,-173.2193 -7.2479,-258.82643 -16.9588,-203.93136 -15.6106,-414.26782 -42.6012,-617.47679 -20.5074,-112.00926 -75.507,-221.85442 -167.7397,-290.371271 -54.8613,8.412321 25.4471,227.612211 -11.9002,162.774321 14.6823,130.06711 37.1612,261.92757 34.1397,391.30954 10.4783,83.29372 -1.5666,166.20728 11.2588,246.43707 6.8594,126.35308 24.573,240.83326 52.016,362.35576 30.3427,130.5723 51.9127,260.1075 56.2064,389.7868 19.4811,76.6778 25.9728,162.413 54.1821,239.6258 13.5203,52.5588 26.6711,111.5344 17.1727,165.2929 1.2957,40.8717 -18.6775,74.4789 -12.5988,115.4147 -19.2851,146.4022 -6.9925,295.0443 -3.8917,444.7043 15.776,100.6794 10.8096,198.687 24.9518,301.1844 -3.3864,38.082 19.8654,77.7334 17.4052,118.7125 18.7789,51.5372 14.7865,106.4259 31.3547,161.1653 22.3021,69.5721 12.3185,142.9868 24.6271,211.6784 1.8715,47.9633 3.7218,95.192 -22.2304,134.2826 -7.4366,38.5612 -14.7616,95.8811 -47.3792,125.7789 -48.3577,36.8058 -69.2459,46.9742 24.1485,36.8729 z m 263.88,-0.5582 c 47.2963,-42.172 104.4652,-89.1489 130.8494,-146.8592 10.677,-33.5252 14.3598,-191.0206 -22.7892,-102.3939 -27.8027,96.8833 -109.2093,162.4829 -164.6523,244.3676 -55.0698,9.3158 56.1379,15.2082 56.5921,4.8855 z m 136.3634,-1.112 c 0.3299,-18.6758 15.671,-133.1898 -19.6455,-86.5006 -13.1149,29.4148 -56.9163,104.0855 -68.2926,90.7863 28.549,-2.2165 63.0536,7.3068 87.9381,-4.2857 z m -1222.7029,1.6585 c 112.3291,7.2236 187.3159,2.1136 56.6987,-38.8583 -80.3476,-24.7751 -168.2875,-34.7577 -244.6601,-58.8679 C 911.01798,3526.1937 734.97372,3487.9929 588.66666,3392.293 463.67143,3323.1347 362.36547,3213.5855 267.39289,3115.5706 191.84739,3038.3181 121.47152,2954.094 49.018474,2873.6605 c -9.630333,70.4153 -15.654977,154.9855 40.997321,207.7781 135.183115,126.2031 288.637965,233.4149 421.428225,361.8947 67.46425,33.9693 141.5214,78.0816 215.18241,106.6331 74.61209,34.7516 154.14898,74.6917 220.70689,119.8058 99.31178,12.5761 213.62318,7.8294 318.87378,8.9931 z m 248.4595,0.4235 c -13.1715,-26.0913 -157.9805,-91.0455 -197.1692,-152.1643 C 1221.527,3450.2279 1138.2738,3356.8849 1036,3288.2069 968.66284,3229.0334 904.81675,3164.881 841.33332,3102.6666 788.69551,3051.0433 740.81755,2970.0681 665.5516,2970.9564 601.54243,2927.0869 526.9555,2902.7398 456.08686,2869.6969 360.21645,2831.5687 252.98004,2795.3233 189.33333,2701.204 147.54844,2631.8381 89.453778,2564.5874 45.058966,2496.3409 c -5.582494,65.1594 -2.966931,123.616 39.681427,172.2679 91.041427,97.819 196.163037,191.9283 301.288657,277.5054 110.42484,90.6616 246.94581,130.2994 372.14265,192.5524 54.37962,16.7709 102.85937,67.9535 152.94667,94.592 39.4798,41.3391 112.35373,61.2301 139.01993,112.2866 39.4315,31.5735 70.4138,68.0554 105.8617,99.5054 91.1729,79.2404 194.457,146.077 287.7738,224.6416 17.0658,17.4525 46.9396,9.0001 70.8928,9.4966 z m 419.2568,-2.3871 c 50.5672,-65.8997 19.3043,-148.0473 40.4772,-224.6232 6.6299,-137.8018 -22.8482,-269.1864 -31.8291,-406.1785 -26.7877,-120.4115 -42.0726,-248.6332 -79.333,-366 -50.5641,-57.5055 -83.3102,-132.1905 -121.9054,-199.9791 -70.8289,-177.5633 -170.5468,-353.9366 -216.6556,-536.8601 -46.379,-157.6067 -96.247,-314.3093 -124.5432,-477.8275 -28.749,-127.2988 -36.2201,-248.4766 -65.1682,-376.7261 2.9078,-56.5947 -22.1455,-110.52982 -59.7709,-144.90821 C 1199.0269,839.37673 1134.9503,726.56459 1064.5767,618.66666 1013.8777,509.30035 938.29046,407.84109 915.99999,287.26001 920.53511,254.90812 844.14485,161.53082 903.13648,168.00603 942.68096,289.78987 973.6476,423.4125 1048,532.6057 c 33.5927,81.89667 82.3227,150.37576 132.0186,222.72763 37.1651,49.41607 168.7626,161.95153 130.648,172.53423 C 1285.3437,809.99374 1276.9378,683.89875 1244,565.99999 1208.6388,506.84251 1160.2849,453.07574 1121.4557,402.66666 1060.6431,372.13613 1010.0919,322.6877 988.45193,256.05862 959.15959,229.38089 968.4139,97.073965 915.99999,126.65783 c -30.9843,30.50685 -93.31755,37.50702 -89.87681,87.93454 -5.23457,62.88591 43.41751,121.80747 53.75009,186.07429 39.58653,155.88639 150.22323,289.06234 171.93763,448.3376 15.3537,52.39148 37.6857,211.14724 31.3946,165.66244 4.0543,96.0419 66.3709,190.95 98.8695,284.6666 29.312,94.9327 54.3297,190.4005 88.144,284 35.8929,135.7018 79.8343,266.5008 127.2616,394.5112 33.8161,78.7705 13.812,159.434 46.5377,237.7191 11.8883,88.1479 70.2188,160.6557 93.313,245.6808 49.2695,98.0533 67.7833,208.4999 113.2172,308.6894 37.5567,113.1346 101.7948,227.1964 136.04,348.0662 35.57,81.2299 51.9884,163.6295 82.0474,248.0793 2.9325,102.5069 53.7088,211.1938 -1.0305,307.5859 -52.8303,10.104 61.9057,10.7529 66.318,3.1365 z m 216.7432,3.3456 c 38.6322,-63.7041 90.751,-130.0984 87.7551,-212.1939 0.5773,-168.2375 68.0468,-321.9107 66.6553,-488.8552 -3.079,-105.246 -18.1109,-213.9979 -6.3302,-318.7649 -1.8046,-72.1479 -13.7734,-152.7476 -19.9366,-218.2877 -28.9188,-127.3575 -49.2409,-264.8415 -53.6774,-399.365 -5.4347,-41.0787 3.0511,-184.8649 0.1729,-142.7044 -8.8963,-96.2075 -7.8514,-202.6646 -8.7337,-305.5258 2.4179,-117.3682 20.6758,-237.9585 24.8754,-357.7288 -14.8036,-58.4487 9.234,-134.6296 -38.7769,-177.1753 -47.6494,-116.74166 -74.217,-243.46593 -66.2672,-369.01323 -13.1689,-82.31603 -40.4897,-164.83901 -30.1393,-249.19974 -2.3159,-96.99595 -27.8618,-191.16709 -42.4342,-282.90018 -23.1119,-57.40974 -11.2083,-159.557162 12.9435,-38.85875 9.9924,65.50913 19.1275,135.84037 34.6676,196.59178 15.1191,64.89326 14.2678,129.85344 12.4723,197.16715 25.6531,118.38022 34.0135,238.97562 40.1952,360.33513 14.073,39.70777 46.6685,176.11114 51.8952,57.26706 12.2676,-87.05235 16.672,-187.491 23.5953,-281.60219 7.1732,-148.63906 -21.0188,-298.70228 -28.9765,-442.66667 -20.8612,-65.88166 -2.1446,-197.5455916 -107.4259,-166.849979 -48.1586,2.715223 -100.0588,-6.438078 -146.0369,3.229583 25.3856,87.941766 78.0691,165.803386 70.0399,260.953736 13.6402,146.79395 17.6281,297.03262 27.8045,441.2395 0.5235,117.71988 20.7648,239.16642 24.1737,356.7605 -10.1296,90.0611 1.5655,183.2207 -4.4179,274.7625 4.2691,61.6764 33.162,116.1436 28.8156,178.7008 1.7216,92.9747 22.4178,184.7736 49.2507,271.1794 4.9816,52.8527 19.9025,89.6552 16.5079,142.8118 15.631,69.2745 0.7414,150.6229 25.7001,223.9832 -2.0534,32.062 1.6176,130.097 1.0589,99.8956 20.86,127.3907 29.971,262.104 55.8692,390.74 3.7634,42.5724 2.722,136.9433 2.3804,102.872 1.4248,67.7143 -2.2993,142.9943 -2.2309,212.2551 -11.3349,66.7655 6.8993,144.0658 -9.3285,215.6812 -3.3856,7.9636 -11.3243,110.0936 -11.4443,78.0198 2.2228,69.2388 -19.1528,125.3298 -31.7148,192.5402 -19.8793,59.7818 -25.4528,136.2094 -81.4063,181.5585 -42.0281,25.1417 26.7411,9.5535 32.4488,13.1472 z m 41.2504,-0.714 c 39.4103,-71.389 91.8399,-135.0437 135.6624,-207.3028 47.6493,-87.6084 67.3284,-188.6555 70.8316,-286.368 24.3445,-201.2725 -25.961,-400.5341 -13.2201,-599.9335 3.2295,-141.8473 3.0853,-292.0008 7.1128,-434.9613 8.4096,-99.3413 3.4213,-202.0738 21.017,-304.0024 11.2015,-136.5824 49.1982,-287.86 16.2772,-423.8133 -53.1932,-82.5118 -103.3578,-176.6775 -105.712,-279.2759 -21.0662,-125.8579 -1.1682,-265.39756 -14.9349,-386.28779 -6.3588,-75.22321 -12.8889,-159.61893 -0.4143,-231.74021 0.2019,-86.08674 1.6034,-178.30795 2.234,-262.36514 13.2889,-46.1116 1.0075,-89.29601 -8.104,-135.32516 -22.5988,-33.458188 -5.8648,-103.835733 -62.4192,-86.886592 -82.9934,-18.405878 -13.3344,65.837662 -22.3397,106.636442 18.5863,53.18974 8.7566,115.28425 20.1908,170.25233 1.3102,94.42236 35.2403,189.77104 19.4396,283.94001 0.9653,143.41174 -14.6025,289.48061 -34.6937,430.45221 22.5774,36.1981 34.7891,80.1869 31.3455,129.5478 19.0993,101.7751 -3.5975,209.6544 -15.9919,312.2868 -0.1359,67.1269 -11.1653,141.1891 -3.4445,215.4357 -1.9814,76.2571 7.1137,153.0244 3.9412,231.6436 -0.3191,46.9996 3.8492,91.6198 1.8985,136.0244 5.2979,48.1923 1.9584,86.9115 14.3217,137.3584 -2.1812,38.5568 13.0318,77.7279 16.7106,117.15 17.5112,97.7281 37.7369,193.5838 43.7453,294.7677 -3.1747,116.1353 2.6955,225.5806 11.878,340 6.3286,159.5697 -46.8668,311.746 -61.7352,469.8115 -11.337,83.6403 -14.6167,169.931 -71.3617,236.8552 -19.9992,12.7406 -52.7245,38.6996 -2.235,26.1 z m 79.7178,1.068 c 32.9394,-31.2477 -24.2937,-6.5628 0,0 z m -597.5091,-2.1817 c -31.5652,-32.7769 -65.7472,-47.4414 -95.8784,-82.9307 -97.6318,-73.9965 -202.5503,-137.9506 -281.914,-234.648 -48.1739,-39.8226 -66.7306,-110.1774 -118.1648,-143.4429 -1.2356,-20.7327 -31.2513,-38.0131 -42.0428,-65.298 -74.9301,-103.8649 -129.7599,-218.1381 -210.12571,-319.8934 -42.84857,-54.2954 -90.6055,-114.1611 -162.96889,-136.1572 -98.7941,-59.0263 -193.12724,-119.9809 -291.24823,-177.192 -69.9642,-62.1602 -124.7604,-141.9703 -189.11621,-209.7994 -9.93602,-25.7618 -50.93752,-75.1084 -39.7113,-55.774 C 226.01488,2207.7711 191.53983,2177.3732 171.78812,2128 148.68147,2106.0449 95.512748,2015.136 112,2044.6464 85.565038,2004.7666 24.692033,1880.3647 44.227987,2008.6666 c -10.240399,82.997 9.46378,171.5667 76.131693,225.6715 38.35077,59.5604 102.62508,119.1541 147.64032,178.7715 44.06142,74.2263 108.98819,127.4087 145.94834,207.1921 37.95365,71.9382 87.00743,125.2855 155.12385,172.2013 97.86561,62.1469 156.71205,162.6015 245.23124,240.6808 63.17953,76.7033 153.80085,137.7522 228.03807,204.9042 122.8897,88.1859 214.414,197.8633 327.1961,300.5786 52.8026,38.0617 108.1244,67.9816 164.9442,93.0942 48.5448,4.7448 90.7801,32.1348 80.8258,28.8092 10.0281,19.1969 -59.4591,-4.589 -57.9923,-6.0875 -27.2702,-2.8673 114.6957,16.7494 87.4986,25.1536 l 29.3158,-1.3168 z m 64.7999,-3.653 c -15.015,-103.1307 -41.6558,-213.1214 -100.2946,-301.1142 -54.5727,-69.2908 -105.8871,-141.8974 -169.2977,-203.2454 -35.6829,-50.5617 -45.1032,-134.1428 -110.8476,-155.2721 -85.8577,-37.3724 -166.0512,-78.6326 -236.3173,-139.0295 -69.6855,-53.0693 -130.33588,-124.1996 -192.83508,-188.827 C 829.90516,2574.6349 760.65091,2438.6875 658.51054,2325.07 588.90219,2247.5605 529.54192,2159.1512 472.40477,2072 c -76.76307,-97.2637 -24.87018,-68.3181 -25.06247,-48 -26.79116,-40.4038 -58.77316,-80.8046 -90.25988,-112.762 -72.47404,-94.7995 -139.35012,-193.7577 -205.08243,-289.9047 -51.40121,-46.402 -127.187463,-284.0155 -109.699916,-91.6666 -9.987534,73.8809 23.458506,121.9534 57.700266,185.7489 71.68394,154.8952 191.55723,276.735 288.76801,413.9177 67.88941,83.9802 134.35379,170.8286 203.11952,254.4273 138.62901,158.0632 268.38171,325.8685 394.77878,493.6482 53.77745,82.0827 109.71175,162.4466 168.66665,242.8776 82.7692,125.9798 163.219,257.9889 286.7351,349.1225 66.506,35.1977 121.6409,100.0309 191.5125,121.2251 21.8192,30.573 46.5827,93.7808 93.3811,88.7685 2.2077,-4.4069 13.206,5.1525 11.9636,-4.7359 z M 404.26666,1983.7333 c -6.99462,-18.1723 11.40161,7.262 0,0 z m -24.71111,-35.2889 c 0.81205,-9.6652 7.76625,6.376 0,0 z M 887.65263,3673.9652 C 853.43637,3627.3221 727.17399,3584.8451 657.37996,3545.3333 521.37083,3491.2514 398.8582,3410.8309 264.42204,3352.9605 201.586,3328.041 58.875977,3153.9355 45.228948,3238.6666 c -10.120359,67.6319 0.0248,138.7744 71.245312,163.3171 99.16049,72.1232 210.63501,123.8476 315.55679,181.3428 84.66057,35.8071 171.29202,100.1074 269.9695,90.648 61.87197,1.6502 123.77758,1.581 185.65208,-0.01 z m -359.96016,-0.7311 c 69.20031,2.9547 -88.68401,-63.0797 -73.8341,-53.7505 -108.83033,-51.3751 -212.49747,-115.6322 -320.52986,-174.4697 -47.141564,-56.378 -120.185195,-72.3619 -77.239024,13.8694 46.495924,21.9112 95.229014,49.4531 129.885574,86.6458 45.18955,51.023 103.67906,79.235 165.5599,111.7246 29.64774,43.216 128.30302,2.3841 176.15751,15.9804 z m -206.94618,-1.5352 c -45.11469,-30.3278 -101.66996,-49.9971 -141.56465,-97.822 -28.77124,-30.7329 -158.308456,-51.2402 -132.14988,-69.9877 20.124766,47.1518 -42.7083625,184.7468 49.83735,168.5873 74.62228,0.39 149.26665,0.7901 223.87718,-0.7776 z m 1140.58701,-46.2633 c -17.6442,-27.2877 -47.3174,-9.1859 0,0 z M 1326.6666,3614.82 C 1254.5529,3542.7458 1154.7431,3504.5331 1094.6324,3419.3166 901.90112,3394.4649 705.19361,3365.051 551.28066,3235.8382 455.33803,3159.6529 361.9017,3066.1216 260.54951,2986.1107 188.248,2922.8541 113.471,2842.5443 46.232527,2785.2337 c -7.001474,99.4227 116.419933,149.7469 160.530603,228.4203 63.54398,70.7062 128.57186,144.76 199.90353,203.4286 143.58466,157.3729 343.87794,246.0888 546.77165,297.1459 75.65709,29.7473 144.70049,14.6428 221.21949,50.634 46.2518,16.1119 103.3037,34.6567 152.0088,49.9575 z M 484.76399,3452.638 c -9.78185,0.1259 9.43976,4.6545 0,0 z m 764.56931,-1.226 c -6.9525,-11.3885 -2.0144,7.8138 0,0 z m -10.6666,-12.0318 c -11.4899,-12.7122 -8.6339,1.3313 0,0 z M 466.61807,3435 c -19.20684,-19.0019 -12.90613,2.4462 0,0 z m -27.20625,-14.3758 c -11.8481,-9.2032 -19.00157,-2.2595 0,0 z m -32.75652,-16.1133 c -33.62087,-10.7294 19.6818,13.0001 0,0 z m 642.678,-20.7271 c -35.8844,-57.9122 -102.97616,-77.1304 -148.94853,-126.8868 -80.99605,-52.0094 -168.61461,-105.9852 -261.14478,-142.6961 -92.80583,-34.8703 -181.13904,-83.739 -259.70557,-140.8622 -54.75315,-40.9787 -102.17803,-98.2024 -161.23496,-132.215 -62.813,-55.6096 -122.413322,-114.1465 -171.194565,-182.7886 -17.219644,66.2983 14.615524,108.0009 59.510985,151.6529 157.72116,157.1308 326.91744,301.7541 500.18938,441.3893 130.09508,92.3308 289.34806,108.189 442.52804,132.4065 z m 118.0974,-8.4792 c -9.7821,0.1258 9.4394,4.6549 0,0 z M 398.34574,3373 C 288.10359,3265.3668 157.24544,3183.971 49.161075,3073.3424 19.439754,3151.4982 105.57091,3190.3935 153.44397,3234.6666 224.83295,3294.1265 309.3548,3355.3035 398.34574,3373 Z m 756.32096,-10.1535 c -15.3015,-21.8861 -41.81,-13.2362 0,0 z M 1649.7826,3351 c -10.8267,-141.1561 -116.7175,-252.2613 -173.1277,-374.0819 -51.5917,-90.84 -101.6887,-195.4751 -157.3216,-290.7031 -53.1133,-84.1524 -93.2159,-184.4438 -164.9884,-257.5484 -57.4246,-117.9695 -128.32,-229.46 -195.67825,-344.3882 -42.16439,-76.7901 -80.266,-152.4154 -134.80317,-219.7354 -1.22556,-32.4768 -95.27185,-134.6105 -39.43338,-62.3065 C 714.84048,1764.3801 640.91944,1679.9739 565.14309,1631.6287 490.05755,1533.7439 395.24768,1447.897 334.91888,1340.7845 288.69622,1253.1751 249.44332,1161.4928 200.94025,1074.9401 141.59637,1037.2032 127.13626,951.89229 86.036662,907.50375 c -13.561349,41.98361 -0.158808,87.06459 33.771938,131.88085 61.02852,131.6014 168.6017,232.7334 225.56905,368.0821 42.71803,81.8348 92.64015,161.0826 135.27304,243.2945 51.83688,77.1434 89.54934,173.8104 164.68263,235.526 70.29582,78.7471 123.89728,184.2927 175.61568,279.5209 60.19008,82.2237 148.67715,134.9593 207.7871,220.1499 84.1829,93.5064 153.9882,198.6981 218.1334,306.3333 -0.9919,48.2897 89.2429,196.915 71.1953,145.4029 24.4837,57.0408 51.319,102.5571 77.5132,153.1087 22.8799,30.9948 54.4909,42.5519 48.422,78.6416 19.028,38.0596 46.6307,59.8059 52.6607,99.6095 38.0111,37.5346 73.255,71.8895 98.6104,116.5841 20.475,16.807 35.7417,45.2293 54.5115,65.3619 z m -292.6377,-385.5515 c -22.5011,-55.7446 -59.762,-106.8661 -78.4783,-167.9336 -36.2818,-40.3428 -54.0279,-89.0933 -74.6673,-138.2115 -65.9062,-85.2137 -114.338,-182.6394 -193.3333,-260.7849 -41.3618,-62.9874 -94.99823,-97.2515 -144.36715,-150.8329 -79.685,-67.4836 -106.23538,-179.0288 -170.93361,-258.8502 -31.9285,-58.4356 -90.50466,-103.6672 -129.82183,-154.4355 -96.84688,6.3976 -171.86357,-70.5348 -224.22448,-138.7332 -35.19018,-62.9794 -87.79975,-118.8168 -126.40401,-182.3334 -41.45208,-51.1357 -78.61704,-105.5641 -123.029213,-158.2342 -42.050293,-89.7888 -65.968119,-47.5399 -43.738821,29.514 12.922977,66.5054 67.569524,117.1242 93.966234,179.0654 67.13198,92.3757 118.18571,193.3159 195.20504,275.7579 52.31231,73.5077 114.85373,134.5841 157.3485,214.351 47.41773,77.1123 86.90891,161.4046 158.74058,221.1887 87.89289,113.7828 171.80425,228.8981 258.00327,347.7463 73.85154,98.2718 167.29089,183.6797 262.28589,259.7313 57.4943,33.8047 114.7809,82.408 181.6237,85.7429 z m -679.802,-25.1152 C 604.437,2855.4675 516.16034,2782.0068 431.20081,2706.6666 381.86514,2631.0086 351.91401,2547.6301 288,2481.8094 219.2027,2390.397 151.99511,2299.8682 67.999999,2221.1392 23.908758,2129.3809 46.078566,2423.8722 44.041274,2408 c -3.714767,48.3892 26.871364,82.2983 55.330828,122.703 88.649678,108.1549 158.283398,258.0204 308.907728,289.1939 88.28736,40.1675 180.97088,82.925 269.06307,120.4364 z M 814.66666,2688.4949 C 689.82873,2535.7441 563.26741,2378.2619 434.13999,2234.8213 354.86808,2115.352 264.17303,2008.1338 175.77784,1895.012 124.44691,1825.6162 92.08869,1734.933 44.186063,1669.0496 c 1.179594,62.4348 -8.837613,132.5402 12.963611,188.0376 21.720637,105.4133 84.295346,190.123 149.516986,276.9373 81.33449,131.6977 171.1503,265.8906 284.324,366.2688 95.79959,53.5566 181.88841,108.3984 273.89073,170.3733 16.2604,5.4581 32.92271,16.7723 49.78527,17.8283 z M 1848,2611.3333 c -1.9931,-7.2889 -5.9393,6.4315 0,0 z m -3.3512,-10.8295 c -10.1856,-86.5562 -41.3741,-167.4623 -56.1145,-258.0498 -31.9784,-184.1097 -47.671,-365.4062 -66.0143,-548.634 -8.3106,-70.2324 -12.6006,-150.0251 -25.7979,-221.1533 0.4798,-60.0184 -20.1412,-121.968 -27.389,-181.1582 -54.5365,-190.2626 -20.5194,-414.79414 -147.8021,-578.87383 -96.9064,-122.23152 -180.2131,-260.6522 -232.198,-410.04703 -21.3067,-83.55843 -47.2157,-167.51635 -76.6544,-250.07303 -9.8895,-47.57085 -43.1907,-168.81402 -89.8832,-97.181284 17.4246,95.134434 45.1238,187.797494 79.7854,276.778284 41.647,131.17379 79.9888,264.37572 94.718,401.11926 21.1435,85.30742 26.1322,176.71989 48.2721,261.33933 9.1397,52.7513 16.5391,128.7109 29.963,189.8098 9.6998,74.3403 20.1013,138.7833 31.289,210.2867 34.2736,172.5457 73.2648,345.878 131.022,512.223 23.613,97.7473 27.0943,104.0353 50.1559,153.7293 37.7351,127.7904 109.811,245.8132 157.185,371.9043 31.4648,59.6609 50.0661,121.9294 96.9571,172.81 l 2.5061,-4.8295 z m -301.6147,-56.4157 c 9.5124,-48.5853 -73.4745,-56.7068 -72.296,-115.4881 -29.8766,-55.0869 -59.9817,-107.185 -80.0715,-164.7944 C 1320.1361,2156.4216 1264.5433,2033.3612 1200,1919.3673 1105.8784,1729.829 1016.7636,1535.2839 924.75468,1344.2797 868.59769,1239.2923 825.49467,1122.6998 762.30175,1021.3333 650.71313,989.2363 584.18117,879.16758 525.07929,784.92815 485.67202,706.61047 429.32647,634.28488 401.65578,551.59018 c -1.9855,-70.89098 -15.72256,76.89636 -20.32245,40.37671 102.208,235.24818 230.93298,456.82041 333.92415,691.35761 86.39095,172.931 182.50289,343.9203 258.23428,521.494 65.50744,143.1656 141.30054,275.3996 232.79304,403.8481 90.2338,107.828 190.4579,214.133 299.3984,306.9922 9.9474,7.8415 24.4395,40.1855 37.3509,28.4293 z m -17.7611,-68.9988 c -30.1253,-58.5289 -34.6719,-34.3789 0,0 z m -23.9397,-42.2595 c -4.8822,-13.1796 -4.9393,5.0214 0,0 z M 1496,2420.7453 c -6.825,-11.6711 -1.7233,7.857 0,0 z m -5.6068,-15.7077 c -18.8439,-73.0203 -72.1493,-132.5033 -75.7276,-211.0376 -32.9099,-70.2084 -5.0699,-149.0077 -42.0568,-219.3334 -44.2321,-114.3585 -73.801,-226.7835 -111.4524,-341.7705 -12.1569,-69.3662 -36.6999,-124.6013 -58.9763,-186.1298 -17.6588,-104.3109 -66.108,-200.2287 -97.425,-301.3406 -56.384,-85.6136 -48.3427,-192.21755 -89.1495,-284.39789 C 956.45775,756.36078 817.95774,723.93555 781.30538,603.33333 737.85704,547.76604 706.17453,479.7372 675.39196,415.67924 c 3.53639,-53.11943 -29.9239,-123.39529 -67.21257,-52.5105 1.95269,42.53561 8.23527,91.72463 29.83368,136.83126 45.20838,139.8203 89.76231,277.07822 145.96157,412.66666 27.65562,109.05604 73.85726,216.23684 116.66444,316.69714 12.85338,43.4141 36.42354,81.9654 54.02754,135.5853 77.62038,145.3122 131.99428,300.0715 216.00008,441.7004 86.2691,199.2249 205.8314,379.7953 298.5665,578.2275 2.0452,6.3275 31.7499,46.3031 21.16,20.1606 z M 47.999999,1860.0786 c -7.238301,-15.1534 -0.946275,14.1596 0,0 z M 546.64658,1811.6667 C 460.58242,1649.5623 365.94543,1492.5586 282.66666,1329.9846 239.59429,1262.461 189.75037,1195.5438 141.1207,1134.7684 76.181443,1089.7235 18.108951,1006.8789 41.364849,1147.3333 c -24.725126,89.3904 45.696969,151.3305 89.651931,216.3694 103.13086,121.5096 181.17073,262.8087 286.44627,381.2372 38.68039,29.1505 77.16718,63.2351 129.18353,66.7268 z m 1435.44592,-56 c -17.1432,-131.3396 -27.9499,-262.1834 -51.7628,-395.0644 C 1884.42,1148.4877 1839.3817,931.41731 1847.9112,712.66666 1838.0275,603.14036 1846.0959,490.5971 1824.0293,382 1775.8696,277.44746 1872.4815,37.240214 1729.5473,37.41412 1689.6757,51.73161 1587.8291,3.1056337 1599.3261,77.715202 c 2.9172,48.561548 -2.3407,95.352148 6.0231,149.348308 4.5792,84.25148 51.4735,144.96023 78.1221,220.72738 26.8445,88.71369 43.5054,180.01628 48.9058,276.16745 -1.1695,58.92287 7.1826,125.83227 11.7645,188.61676 1.9987,31.46951 29.0415,342.0661 13.8573,181.662 16.1443,78.6212 19.8408,166.1778 53.1965,240.8845 19.5482,96.1678 33.3467,204.0349 81.4554,294.2727 17.5884,41.1994 57.7722,111.9434 89.4417,126.2724 z M 757.07872,1755 C 702.90293,1659.0479 660.22187,1556.1015 586.72337,1470.6667 510.44699,1357.5291 443.3218,1235.629 375.19052,1120.4084 359.65619,1052.9898 285.91435,1035.3973 247.64398,983.13619 194.88249,942.49005 172.50919,877.31433 133.25231,830.37755 c -51.632834,16.9831 28.00061,18.07834 18.75267,65.22803 33.1618,78.42534 73.95294,149.77552 100.34786,229.72862 65.38158,97.2563 97.24888,213.4118 172.05811,304.3609 69.63101,78.3806 133.99275,175.3289 220.89556,230.4005 29.30305,39.3057 80.98983,59.0373 111.77221,94.9044 z M 623.4825,1145 C 568.01401,1017.0064 489.81773,889.55516 433.33333,757.99999 c -24.66266,-64.7484 -75.45268,-124.21619 -85.26676,-192 -29.67273,34.16766 -71.32207,61.90294 -73.7434,112.11896 26.48759,50.57819 47.1507,108.98194 80.35439,158.2656 53.92371,115.98201 132.97711,223.87705 239.87542,291.62875 6.0475,0.04 31.00113,30.2162 28.92952,16.9867 z M 120.22443,1090.1131 C 73.579614,1048.8444 47.505073,932.4159 68.619082,936.62756 c -38.616884,43.43127 -26.965659,95.21614 21.22829,127.32814 1.199994,5.3167 42.531428,43.3191 30.377058,26.1574 z m 683.86632,-52.905 C 769.38885,955.67495 750.17059,864.62576 711.35195,783.99999 664.7263,661.35143 625.7139,537.04958 582.66377,413.33333 c -8.87251,-67.75311 -141.73127,39.91559 -110.38816,39.38672 56.62118,-39.56378 6.46235,119.87097 67.33059,141.65122 67.31518,105.49415 130.72565,213.71086 197.15468,319.62872 6.9322,18.80404 72.41665,159.72571 67.32987,123.20811 z M 188,1027.9359 c -31.69854,-46.68252 -45.4857,-105.77353 -79.16961,-149.31552 -10.740444,27.52365 83.8773,180.73592 67.74355,139.29032 l 6.84433,9.3401 z m 574.05306,-12.0218 C 709.98345,889.92915 622.68893,788.04959 562.16278,667.35726 c -49.28611,-55.7823 -89.336,-132.53354 -95.82139,-202.36117 -46.48939,3.007 -50.61255,50.13473 -31.64117,99.95144 78.35223,162.43981 163.66131,334.81766 317.10254,441.78587 0.51546,6.2761 2.23664,11.8426 10.2503,9.1807 z M 307.97573,1003.6667 C 267.9134,920.62874 217.88382,831.65008 201.97258,744.82111 c 1.70326,-2.27689 -102.039171,70.56262 -26.50782,95.52048 29.91083,63.48887 75.64065,121.29607 132.51097,163.32511 z M 45.333333,930.54183 C 64.679238,871.62439 111.35056,814.96113 148.32646,764.89841 301.17462,566.86814 497.72939,409.10039 701.33332,266.35038 767.13476,216.46337 817.17283,171.44048 884.66766,132.19757 914.32938,92.976296 1152.0645,24.93848 993.38363,36.73954 926.20133,56.654814 870.41632,120.1855 815.19078,145.72433 756.31394,194.68561 697.39487,226.73248 636.4927,262.14665 568.53743,305.3289 504.69154,363.3792 447.55718,408.82018 c 7.19357,19.24072 -34.87004,30.41071 -71.07032,64.8322 -15.5279,26.74802 -32.99416,28.81393 -51.19192,57.50902 -43.76315,36.86347 -74.34919,61.67219 -99.68627,105.87912 -43.13923,32.34337 -49.76901,77.28581 -85.7849,106.21399 -11.70628,-4.90907 -51.928772,85.57568 -40.891783,42.02674 -44.676801,34.06628 2.288243,15.85446 -29.429471,64.61417 -16.727604,-15.71392 19.330189,-43.71093 -24.95743,-3.22876 -5.941715,29.48797 7.634551,81.18219 0.788247,83.87517 z M 485.33333,384 c 5.12565,-4.78029 3.41755,4.93852 0,0 z M 52.781853,819.20469 C 125.1647,659.14659 276.17698,548.09275 403.33333,430.30833 569.40025,282.8545 756.93549,163.06042 943.56447,43.652078 1008.1393,13.549796 662.25139,38.889568 525.73314,31.323314 365.24289,32.047741 203.63386,22.807922 43.701851,32.528889 31.761775,296.48854 40.294762,565.5815 39.739322,832.07933 48.47818,845.57062 39.287126,817.6503 52.781853,819.20469 Z M 1006.6667,802.18606 c 1.3879,-83.24748 -58.32182,-155.74045 -84.44909,-234.70547 -61.19349,-93.07663 -69.53502,-205.46112 -115.43435,-304.81393 -2.98334,-81.16413 -50.35808,-20.108 -81.27339,2.5579 -17.84923,29.35777 -86.71157,38.55942 -42.86055,89.40782 24.44537,117.01623 106.77808,208.00944 162.22899,310.68703 48.88041,52.58733 116.48416,82.80203 161.78839,136.86665 z M 182.20656,743.27582 c -3.61109,-7.93425 -8.24702,3.05229 0,0 z M 1486.6666,725.15737 C 1463.5138,625.18484 1448.59,519.44999 1414.791,421.05001 1382.1491,312.2124 1363.4047,198.97872 1340.4996,87.999999 1339.2925,7.5856487 1258.6399,43.512286 1208.9925,36.0886 c 1.2444,58.781989 31.275,128.99913 52.3408,189.10497 34.0549,125.9215 69.6884,252.29987 137.3669,363.47309 20.8489,49.78832 57.8087,92.38527 87.9664,136.49071 z M 1220.3177,468.7117 C 1198.1709,357.69 1146.1051,257.57315 1116.6283,149.33333 c 17.9053,-82.680117 -59.6989,-149.84250021 -97.455,-60.904567 5.3494,90.061737 69.4042,160.445767 96.7584,245.171377 25.4352,46.29209 60.1129,119.8976 104.386,135.11156 z M 582.73709,372.66666 c -7.98757,-0.20767 -3.65372,5.16457 0,0 z m 519.88501,-26.90017 c -33.5751,-71.56114 -74.7361,-140.75519 -98.8163,-215.3817 1.5149,-100.430329 -75.53419,16.01912 -13.14508,65.89542 15.55728,52.48476 54.05668,154.2282 111.96138,149.48628 z m 893.6023,-99.18913 c 5.6833,-48.91753 -20.7659,-95.54765 -41.2244,-140.52677 2.1173,-77.425755 -73.2121,-70.84691 -128.5298,-67.771289 -16.3173,31.860072 85.8819,26.927104 92.1964,77.707149 37.5852,33.20684 62.2053,113.90944 77.5578,130.59091 z M 1584.214,243 c -18.9445,-65.83414 40.2756,-217.436305 -57.4423,-206.676938 -136.4444,-38.4774331 -38.373,81.474138 -17.0363,136.343608 12.7062,13.53392 65.5293,94.60504 74.4786,70.33333 z m 752.8526,-88.6 c 3.013,-34.81568 48.9284,-101.274641 -1.0228,-116.887699 -79.2892,-7.632681 -14.2287,80.049639 1.0228,116.887699 z"
         style="fill:#393939;stroke-width:1.33333"
         id="path275" />
    </g>
    <path
       style="fill:none;stroke-width:5.04127"
       d="M -4.6466812,614.54685 C -8.5303818,447.08789 -4.5313829,4.1678741 0.91353744,-1.2903717 10.221661,-10.621275 870.77366,-3.3996401 879.75362,6.0847343 882.52088,9.0074403 842.00152,38.172247 775.12812,81.391527 569.36647,214.37218 450.27405,304.68238 285.37036,452.78478 131.0631,591.37037 69.263006,660.12028 19.871721,748.1405 10.147593,765.46987 1.5144321,779.64844 0.68691825,779.64844 c -0.82751386,0 -3.22763375,-74.29572 -5.33359945,-165.10159 z"
       id="path304"
       clip-path="url(#clipPath344)" />
  </g>
</svg>
