<?xml version="1.0" encoding="UTF-8" standalone="no"?>
<svg
   xmlns:dc="http://purl.org/dc/elements/1.1/"
   xmlns:cc="http://creativecommons.org/ns#"
   xmlns:rdf="http://www.w3.org/1999/02/22-rdf-syntax-ns#"
   xmlns:svg="http://www.w3.org/2000/svg"
   xmlns="http://www.w3.org/2000/svg"
   viewBox="0 0 2064.7239 3076.1308"
   height="3076.1309"
   width="2064.7239"
   id="svg580"
   version="1.1">
  <metadata
     id="metadata586">
    <rdf:RDF>
      <cc:Work
         rdf:about="">
        <dc:format>image/svg+xml</dc:format>
        <dc:type
           rdf:resource="http://purl.org/dc/dcmitype/StillImage" />
        <dc:title></dc:title>
      </cc:Work>
    </rdf:RDF>
  </metadata>
  <defs
     id="defs584">
    <clipPath
       id="clipPath618"
       clipPathUnits="userSpaceOnUse">
      <rect
         y="39.980068"
         x="32.442829"
         height="3076.1309"
         width="2064.7239"
         id="rect620"
         style="fill:#666666;stroke-width:0.998214" />
    </clipPath>
  </defs>
  <g
     transform="translate(-32.442829,-39.980068)"
     id="layer3">
    <path
       d="M 0,1573.3348 V 0 h 2121.3333 c -18.1695,672.45263 6.3466,1345.9357 0.534,2018.9526 -1.4432,346.5696 -1.6109,693.4022 -3.0901,1039.8068 -23.4037,145.5916 -195.8692,166.1232 -315.672,167.5967 -299.5734,5.4435 -590.596,-94.9326 -890.41987,-79.6958 H 0.00427 C 0.00142324,2622.225 0.00996345,2097.7376 0,1573.3348 Z m 94.66667,1553.5111 c 56.26367,-22.1595 226.12068,35.9848 219.93694,-30.9708 -28.91835,-86.9348 -35.63879,-16.2199 -66.74303,-0.7561 -25.91897,-39.8606 -38.39609,-99.6899 -71.00109,-138.3423 -16.97234,83.3123 -85.142445,6.8616 -80.2559,-55.7767 -7.046712,25.2163 -55.821746,70.9799 -75.91821,-3.6666 -18.6675321,67.1758 -4.170413,141.6145 -11.2604,212 0.919989,41.0894 62.387879,8.7412 85.24169,17.5125 z M 172,3096.2324 c -35.30336,-32.4725 -64.5428,-102.6418 16.07898,-89.7117 12.52107,13.3088 20.44715,96.2709 -16.07898,89.7117 z m -0.26667,-43.1657 c 12.79564,-45.7126 -47.92049,-13.6681 0,0 z m 265.6,69.6 c 18.28636,-22.1207 -110.17018,-52.5382 -43.54732,-2.2278 14.40142,-1.1654 35.9346,0.7788 43.54732,2.2278 z M 2103.672,3026.9764 c -63.9983,-68.2202 -142.5562,-137.9181 -202.2271,-215.414 -87.7863,-38.6987 -172.2001,-87.9004 -256.1753,-133.3653 128.3905,139.077 232.1672,304.6626 384.0637,421.7379 69.8238,70.9769 99.0879,-9.3969 74.3387,-72.9586 z m -67.9038,92.5714 c -113.7305,-89.6527 -206.5485,-201.2231 -295.9327,-314.6528 -74.6766,-93.5306 -163.7493,-174.7313 -266.4411,-235.5616 48.3017,56.227 117.1221,117.5948 166.6958,182.4929 88.8765,118.2356 -33.4078,-6.6483 -85.8481,-31.8263 -45.3694,-30.1798 -139.4233,-97.6259 -57.2412,-14.8441 104.3528,116.4254 198.3842,242.9285 300.6471,360.4215 61.9919,74.6909 151.8155,57.0993 238.1202,53.9704 z M 1850,3118.6667 c -96.1351,-62.4002 -146.4495,-167.6042 -227.3843,-246.7121 -79.2076,-88.1305 -142.6097,-200.7554 -247.9491,-257.041 -41.7394,-4.7951 -198.6661,-97.429 -166.5287,-43.5802 40.3083,54.6945 115.0585,77.0297 160.6663,117.465 -97.1368,-31.0005 -169.7975,-106.8327 -254.1373,-160.0914 -25.9915,-31.6034 -214.50881,-132.1522 -125.3041,-93.3383 69.3217,40.5794 137.9934,91.9784 202.6374,133.298 C 1103.2204,2470.738 1032.1113,2356.974 950.10954,2252.7826 919.91648,2166.9142 839.8862,2139.3948 763.15327,2110.3334 706.78412,2069.1312 665.36722,2025.0453 612.31403,2035.4027 496.7798,1960.9619 465.62893,1822.0023 381.41973,1721.9058 335.50146,1638.1849 247.8174,1589.0305 190.6767,1515.8236 c -12.7109,51.828 28.50285,130.0639 90.80343,147.1712 -54.34654,42.7334 44.16411,83.5444 68.53528,145.2578 63.09499,95.5969 131.33503,188.0217 187.31811,288.3672 101.16042,59.9534 172.80138,158.1553 271.83853,221.3893 22.04303,21.3128 223.92815,144.4355 121.45776,88.0476 -109.04613,-69.2735 50.70199,77.2899 42.64595,70.3633 100.60494,94.8752 201.75794,187.68 294.05774,290.3944 62.1351,60.8308 102.9314,138.2898 166.7536,197.3714 38.2436,44.698 64.3195,121.9667 95.3984,154.0384 106.7722,-1.5672 214.0291,5.3519 320.5145,0.4425 z m -1216.30516,-0.6995 c 58.55777,-4.9947 287.44072,16.0869 131.51819,-29.4454 -113.90583,-60.9298 -258.44103,-92.8533 -376.30519,-28.662 68.81828,56.2598 158.69969,65.8028 244.787,58.1074 z M 1153,3117.4236 c -54.9614,-27.1042 -162.55221,5.7881 -234.31547,-26.2865 -66.63732,-7.3853 -125.55736,-65.8964 -194.11709,-45.4912 66.9353,38.123 149.86471,69.6213 228.72115,71.0596 66.57371,-0.1974 133.14341,1.4974 199.71141,0.7181 z m 346.5606,0.068 c -17.8023,-61.7636 -70.3825,-123.7726 -112.1661,-178.4921 -113.15,-165.9845 -259.8684,-304.1975 -404.72785,-442.242 -72.15858,-61.5229 -135.03019,-130.4543 -206,-193.5368 -75.04704,-44.5609 -158.53812,-149.9018 -205.39581,-150.1824 74.30856,139.7606 168.29462,276.6713 301.10424,366.97 119.29082,74.865 -263.23291,-149.1407 -132.00575,-105.9722 -114.7843,-122.1116 -181.77634,-277.2727 -272.5819,-416.4522 -67.14161,-78.9237 -115.30476,-172.7821 -178.77067,-254.264 -73.9707,-87.582 -1.35843,91.6167 35.60117,112.4747 77.70302,61.4877 -26.63764,54.5693 -20.61793,46.8721 76.57587,99.6784 112.58606,223.2945 174.70849,332.1553 24.31963,59.3227 42.39324,123.8863 83.74231,174.0713 -30.83292,34.1811 -160.61044,-84.7444 -52.73269,4.7734 144.87987,95.3219 300.47976,205.3503 482.92858,193.3944 52.27481,-50.0012 -156.56055,-79.0485 -28.64671,-58.2495 121.91822,52.5228 -13.06345,86.2515 -71.79974,67.0062 117.61496,52.0647 236.80196,116.8705 320.77146,217.0824 48.0379,90.1759 52.2732,207.9421 129.7004,281.1048 51.81,7.1481 104.7176,2.6263 156.8885,3.4866 z m -174.4813,-3.723 c -58.3377,-78.5309 -73.8505,-177.5727 -118.873,-262.292 -58.6067,-74.3855 -140.6068,-126.2446 -216.87298,-180.4679 -147.83524,-78.0342 181.56548,174.749 83.89148,123.9685 53.7603,86.5562 92.8345,187.6613 123.9589,280.5947 36.9814,33.4523 77.0246,54.4303 127.8956,38.1967 z m -972.93919,0.5642 c 37.04802,-59.2273 -106.91875,-122.7637 -24.92593,-36.3333 8.91851,10.948 7.05684,38.6574 24.92593,36.3333 z m 853.19319,-16.4661 C 1088.145,2998.6788 1002.5424,2866.751 883.68279,2767.9746 761.05162,2651.2476 616.6423,2560.8635 477.66666,2466.3134 c 24.59147,56.124 102.07164,70.0384 139.5714,119.1292 70.92456,63.7137 124.30396,144.3129 194.30035,209.0117 72.64864,87.6128 163.95822,161.3963 227.69639,255.4895 -13.1925,66.5811 122.3772,8.949 166.0985,47.9229 z m -257.33331,-29.6343 c -46.35676,-62.1406 -90.58998,12.8964 0,0 z m 63.90191,-1.7676 c -22.61779,-73.5767 -101.08247,-126.1881 -154.3445,-181.1314 -52.94091,-62.7085 -112.31346,-123.54 -167.67969,-182.7015 -49.05091,-63.2682 -111.17812,-140.7597 -189.87772,-155.2727 74.91801,109.7656 199.17115,173.6216 281.33333,275.979 1.00788,67.8489 -38.10078,85.544 48.76153,120.0478 59.64174,38.9856 109.71481,112.8296 181.80705,123.0788 z m -760.14965,-26.7981 c 12.28849,-70.0897 -85.52228,-107.5424 -16.33164,-20.9276 4.6495,6.7986 17.99485,61.6012 16.33164,20.9276 z m 925.21475,10.6667 c -30.7215,-93.7271 -69.0012,-187.84 -123.2248,-270.3441 -82.42831,-94.5447 -179.9108,-180.2702 -303.43937,-213.3226 -123.37602,-58.9412 -233.78841,-141.6017 -351.63228,-210.0024 34.93722,81.5683 124.48661,121.2007 193.86563,172.7101 204.90894,131.2093 386.28846,297.96 540.38052,486.5922 10.56,-0.8675 35.0412,48.4999 44.0503,34.3668 z m -310.30035,-2.4291 c -13.8731,-13.939 -3.14073,8.1718 0,0 z m -173.61267,-19.8812 c 44.02974,-21.1329 168.54781,5.7458 66.27934,-52.4265 -57.65733,-53.0938 -96.16912,-91.5308 -153.33333,-41.5463 -32.61659,3.7915 -161.74349,73.0162 -80.42256,65.0901 58.27222,-2.0541 112.55969,23.2616 167.47655,28.8827 z m -334.75071,-4.1584 c 47.3468,-40.6151 93.02116,-159.6116 -16.14041,-119.9029 -99.90064,-14.6688 -165.90384,-110.5039 -266.96959,-121.1788 56.12544,62.6104 99.18725,134.8294 170.53614,181.5504 36.56471,16.8364 70.45465,68.5873 112.57386,59.5313 z m 529.69672,0.9111 c -41.19851,-56.7972 -120.88557,-81.6201 -161.43484,-137.4463 -87.87089,-41.9563 -139.34063,-140.2707 -233.23182,-174.104 -79.89765,-59.4826 -27.63661,20.0361 8.54122,64.5132 40.25235,66.6303 116.00242,79.6646 181.36529,108.7768 73.85369,35.7549 119.62911,120.1449 204.76015,138.2603 z m -478.66666,-12.0672 c -5.57723,-4.7198 -4.78413,6.5961 0,0 z m 12,-5.3752 c 44.67436,-18.0638 69.2103,-57.7999 115.23351,-74.2622 119.46676,-20.5581 -70.04567,-87.7109 -69.56685,-155.591 -39.483,-72.1819 -100.76023,-159.0041 -192.06949,-156.7695 -18.3086,67.3949 -180.955,-31.3357 -116.10804,43.9381 25.42279,71.6826 193.50555,25.5906 164.76039,88.0862 -30.5252,33.1495 -195.87018,20.5265 -122.11075,61.2885 69.76294,49.2028 166.43348,104.3788 246.34179,43.3016 44.29061,13.9972 -39.92164,81.4663 -30.48056,127.98 0.44847,6.9347 -16.15232,34.3984 4,22.0283 z m 1680.57147,-6.7619 c -2.8166,-90.1811 47.6708,-227.4503 -83.9048,-246.3315 -59.2526,-23.358 -158.3416,-60.2967 -57.9218,21.0934 42.8727,45.4947 171.983,138.9776 35.9218,77.0586 -120.7935,-47.3842 116.5879,163.1703 87.8424,138.2747 5.401,4.0212 9.488,15.9581 18.0624,9.9048 z M 151.83898,2958.5306 c 37.44631,-100.5182 -82.936599,-6.7951 0,0 z m 494.03685,-61.7067 c -33.1827,-6.2791 -7.29275,-2.4186 0,0 z m -505.44319,-1.7009 c -39.29027,-62.2595 -67.695228,-54.3368 -13.89715,-1.2567 l 7.65308,0.6125 z m 479.40068,-1.2896 c 8.7176,-12.3258 -30.03104,-1.0765 0,0 z m -557.695,-13.0463 c -7.310352,-57.8208 -69.633414,-125.2282 -48.15548,-19.4917 13.997987,6.0694 32.555403,16.0922 48.15548,19.4917 z m 681.46119,-15.7356 c 45.88351,-57.4576 -90.32138,-120.4805 -129.93315,-165.1779 -68.24275,-53.7099 -121.51004,-123.6499 -182.93635,-182.8538 -34.0128,-3.1344 -163.171,-125.4109 -101.53583,-32.8884 63.23977,60.5056 96.98255,128.9811 170.89787,182.5357 79.57794,61.6062 145.70342,140.0142 226.43057,199.1955 l 17.07689,-0.8107 z M 1993.0666,2826.4238 C 1880.7652,2716.1178 1779.8997,2594.1368 1712,2451.1918 1643.6863,2300.3365 1527.5285,2177.8879 1404.2719,2070.8311 1344.5977,2005.3926 1247.9259,1983.6949 1178,1928.0254 1036.719,1851.3374 933.46647,1723.2368 809.49652,1624.957 c -41.93558,-48.1378 -159.85441,-173.3364 -78.46089,-45.207 78.44389,136.0769 113.98801,293.1253 200.3957,425.5834 38.77966,97.3891 139.15187,135.6431 207.15247,203.7268 -1.4178,56.7253 121.2277,82.7603 175.7894,111.5196 68.6822,-23.8078 229.5562,33.4214 101.6268,94.8922 -55.2065,22.0277 -214.6764,-34.9586 -86.6199,37.0048 206.7708,146.0774 418.894,295.0984 660.6942,376.4242 z M 67.29909,2818.733 c -13.102141,-60.416 -31.467228,-0.7986 0,0 z m 2038.62351,-54.4638 c 10.6671,-101.5513 -109.6111,-153.9832 -143.7358,-243.6025 -72.2379,-129.0868 -170.3927,-250.0671 -307.0283,-313.1455 -74.793,-43.1467 -150.4287,-85.2208 -223.7967,-130.2332 115.6785,106.9998 227.7698,225.7342 291.4567,372.8387 52.9956,86.8288 95.4699,187.3417 176.5102,252.0014 60.2732,4.5071 190.0868,93.4702 206.5939,62.1411 z M 45.33334,2784.1799 c -31.029238,-51.8531 -25.933944,-8.788 0,0 z M 190,2768.1988 c 99.15446,-7.6855 87.5767,-30.8134 9.87213,-46.8654 -85.76035,-35.1226 -111.700453,-134.4841 -138.01074,-214.6667 -7.01691,-57.1182 -61.80861247,-151.9543 -45.874214,-26.4639 15.561897,85.5749 -35.638284,204.1381 40.534552,263.1204 36.961711,29.1853 89.082332,26.8554 133.478272,24.8756 z m 1435.9457,-10.7776 C 1565.4298,2674.8872 1492.9262,2598.5447 1415.1394,2532 1282.2196,2428.711 1132.2965,2350.9221 991.96306,2258.2998 c -82.99662,-49.6409 94.55004,170.9239 74.64484,138.3262 51.9583,66.2364 100.2513,142.9731 188.3625,162.5951 132.8324,49.1725 257.1773,117.2957 370.9753,198.2001 z m 478.7459,-73.7545 c -5.2045,-117.8345 38.4981,-244.7038 -71.5258,-330.2597 -67.7287,-102.8216 -156.8175,-196.2743 -273.9105,-240.1436 -46.0793,-39.2077 -137.7222,-114.8463 -58.1802,-12.7611 76.6124,122.9454 183.6061,222.3738 302.3991,303.492 103.4208,100.8466 -84.1781,-38.5582 -129.668,-61.8537 -114.4484,-73.6946 148.8391,181.4043 76.518,136.1637 42.0476,73.6689 93.5865,149.5264 154.3674,205.3624 z M 435.20026,2642.3334 c -46.54269,-91.0191 -144.23536,-71.6528 -223.39974,-108.3772 -75.66973,-47.1609 27.57633,101.528 67.95884,59.4922 58.20715,-0.7847 98.47407,52.6279 155.4409,48.885 z m -217.52481,-22.9503 c -32.24717,-30.2404 -63.04699,-120.711 -118.51869,-143.2841 -51.216723,1.0941 18.45748,163.2111 94.31514,142.4454 l 12.356,2.5938 z m 122.50342,-78.8783 C 301.26999,2484.119 267.5951,2419.2995 227.2871,2361.6582 171.53012,2284.2766 113.86126,2199.5525 24.75655,2158.6667 c 0.368413,39.7325 55.479299,88.0245 69.91012,137.2341 29.51804,66.223 36.02092,148.8063 90.9009,198.863 44.19933,29.6444 102.23558,43.7649 154.6113,45.741 z m 120.41892,-41.7266 c -49.46996,-88.4634 -116.04465,-177.0787 -196.63678,-243.084 -30.74959,-35.3438 -167.731271,-144.4753 -72.36899,-41.0814 86.90846,56.5776 -62.49361,23.7829 24.38494,87.4231 50.32123,90.4917 138.01967,149.6446 230.55937,190.6308 l 8.30456,5 z M 125.87318,2455.2355 C 98.817589,2373.9532 70.655113,2290.8551 24.01074,2218.013 c -20.1419614,63.9966 -19.5630313,163.6051 46.872827,211.0994 5.636726,4.8537 53.335783,48.4298 54.989613,26.1231 z m 1979.21642,-27.6084 c 21.8909,-92.2978 8.166,-183.8763 -100.423,-198.2937 -51.7325,-21.1436 -128.9377,-62.0049 -43.469,11.8878 59.3389,52.2463 86.6085,138.6515 143.892,186.4059 z m -727.1966,-16.7875 c 106.1118,1.4901 80.7374,-111.487 -15.893,-75.733 -88.3639,-5.9767 -171.9316,-55.1031 -242.6667,-105.1404 -61.2211,-22.8094 -157.87068,-61.9043 -206.59843,-54.9508 52.98016,76.9816 151.21213,103.7925 223.27843,159.7145 75.4312,39.927 152.9112,81.7159 241.8797,76.1097 z m 558.0636,-46.9205 c -131.1672,-83.3473 -217.7098,-215.6688 -300.4564,-343.8473 -54.2934,-76.1883 -102.3492,-156.6627 -154.9384,-233.4608 -39.2422,-57.4585 -116.7462,-115.3322 -46.4958,-23.2776 76.0463,113.864 -52.4761,-19.7193 -92.1395,-44.6667 -159.0372,-113.815 -308.7395,-239.4753 -455.25985,-368.6608 -143.10974,-92.7319 116.33745,165.3176 -32.1367,66.1057 -83.51027,-65.1112 12.80412,87.5461 20.63834,134.9773 39.76821,75.9888 77.19072,165.7382 160.82891,202.7861 8.8139,38.5816 -166.29113,-89.0269 -61.82054,1.1082 155.52254,165.5675 374.07874,243.7772 558.78554,368.9027 138.1374,74.9958 270.1195,162.01 403.34,242.9696 z M 502.07778,2361 C 463.6504,2235.4109 394.06358,2123.828 341.33333,2003.8086 285.40731,1887.3063 182.94671,1804.1916 103.98938,1703.8602 c 0.0268,53.4214 50.5738,95.2741 66.66304,142.81 -42.77532,19.5663 -133.19058,-102.1581 -54.65238,6.2758 80.11732,123.5111 205.11954,209.6456 280.85705,335.7052 32.45852,49.3093 -3.02035,114.4235 -60.8571,88.0472 46.43759,44.9314 105.19166,69.35 166.07779,84.3016 z m -108.14423,-8.8925 c -2.34992,-10.5594 -10.27304,1.5454 0,0 z M 2106.3734,2054.4759 c -126.9757,-72.9836 -242.3886,-168.8738 -346.5372,-273.1909 -9.4569,11.4998 67.4902,110.6813 84.0987,164.3817 51.8648,92.4176 80.6713,205.5674 180.8797,260.6399 48.9044,42.349 107.049,87.9172 81.9863,-18.0264 0.15,-44.602 -0.2929,-89.2029 -0.4275,-133.8043 z M 364.67843,2251.981 c 39.92794,-58.2743 -49.53806,-129.0062 -82.86226,-175.3754 -93.49696,-93.2366 -180.15311,-195.0571 -254.748745,-302.6245 -31.9206836,53.3778 0.11869,140.4583 60.451425,177.6856 80.08352,104.3301 154.15024,221.2575 262.67162,299.6667 z m -89.68674,-23.5335 c -58.5769,-81.9182 -131.72439,-151.2277 -185.65836,-236.4751 -33.636548,-1.1998 55.89643,120.2993 53.08684,114.9812 30.85789,50.6187 86.85063,86.9782 132.57152,121.4939 z m 1750.34161,-2.6759 C 1942.8816,2167.759 1888.9738,2082.0612 1856.0114,1988 c -44.871,-86.7522 -87.8526,-175.2586 -150.4366,-251.3661 -50.2309,-52.728 -87.6661,-167.9624 -156.5982,-108.3698 -107.7261,-50.7621 -4.9641,74.5065 -10.6205,123.7582 -39.8113,-110.2816 -84.1682,-221.2277 -139.6895,-326.5628 -10.7296,-57.5375 -75.8612,-203.5635 -77.4361,-170.7928 71.5018,108.8012 100.3803,241.1492 178.4684,344.4064 113.3105,73.1032 91.9518,-82.1992 41.8832,-134.6318 -37.8495,-88.5088 -120.05,-148.6604 -159.1335,-238.1599 -24.9353,-80.251 -104.546,-101.1373 -157.353,-158.2814 -23.9582,-17.0625 -86.0179,-103.12056 -109.57,-111.92728 47.508,72.14778 156.1112,222.73348 207.0427,293.53818 -58.5069,-46.2237 -156.2772,-212.1427 -207.9396,-273.27416 -44.2147,-57.63222 -74.6876,-125.10132 -115.98929,-186.34537 -35.80637,-71.66449 -109.71092,-97.3904 -169.40309,-142.28068 -58.10372,-49.56186 33.86205,109.14872 29.43033,81.67786 50.06378,63.98424 33.2868,144.4754 -46.49709,61.90925 C 755.1997,762.48199 628.615,614.70677 731.84984,747.20802 c 33.86381,60.32588 77.40234,111.83814 133.35385,154.12532 143.12221,131.71916 209.22001,318.21846 314.61431,476.51516 107.9618,91.6243 -129.4317,-62.651 -27.8548,31.5197 89.3636,83.6777 155.928,191.1951 239.3701,277.2985 71.6396,50.779 114.8034,131.7182 181.7805,187.7316 1.2075,-26.4521 -49.9802,-153.8497 -17.1138,-85.6759 16.3262,43.976 74.9625,169.2453 -10.8439,76.611 72.6393,139.9024 202.6604,240.4628 344.467,304.4422 42.9841,23.2305 87.8041,45.3672 135.7102,55.996 z M 149.77186,2206.8663 C 94.09357,2130.5297 85.53431,2026.5394 19.097789,1957.8574 c 13.706374,69.1347 46.696295,152.3746 81.619861,212.8005 8.4944,0.4039 44.44386,63.5662 49.05421,36.2084 z m 969.87364,0.2989 C 1069.8927,2159.7288 987.26188,2123.2604 924.18271,2079.962 820.87979,2001.7588 706.1702,1931.946 640.17522,1815.4919 c -30.29068,-44.6597 -129.36588,-229.7083 -75.97099,-80.8252 9.18153,45.6421 103.59254,150.5643 2.3263,85.3514 -4.3396,132.4235 121.53448,220.5424 218.6978,288.4661 106.42069,41.6592 217.13397,74.4705 329.43827,99.3152 z M 39.97172,2138.0147 C 57.655454,2090.8902 -2.0318682,2002.4695 17.36956,2110 c -5.114201,15.4561 3.442455,36.5856 22.60216,28.0147 z m 934.25552,-48.2059 c -47.98248,-65.8442 -88.24844,-136.2798 -120.51242,-211.8033 -53.45062,-73.7073 -52.41646,-173.623 -110.45994,-245.6519 -24.57951,-67.9864 -90.40986,-103.9387 -136.48036,-159.4032 -42.4906,-46.7834 -110.54301,-93.4738 -41.4412,-16.8251 95.99771,169.9988 206.57635,337.6708 258.12337,527.5261 37.78649,49.7859 99.9247,74.6281 150.05108,111.0153 z m 1130.76846,-53.572 c -7.4794,-167.6051 18.4729,-336.5573 -0.9417,-503.5947 -70.3521,-35.7726 -146.6988,-71.1176 -221.1245,-99.8476 -134.8805,-47.2311 -15.9198,99.1666 -16.0952,165.2055 35.5008,139.135 72.0213,289.8274 172.4553,397.1813 21.8276,13.4863 41.995,31.2102 65.7061,41.0555 z M 809.33332,1978.0846 c -51.20279,-189.0507 -163.328,-353.6581 -259.43248,-522.1403 -28.05927,-39.9353 -101.10423,-128.8661 -65.90088,-27.8475 23.07565,70.867 41.89085,139.9975 63.37189,211.229 68.74016,108.8284 125.04841,227.8954 225.98235,312.405 6.98142,0.7731 26.6733,32.7293 35.97912,26.3538 z m 1181.65118,-17.7194 c -52.4423,-98.828 -103.9488,-199.9782 -121.0677,-312.5309 -24.8459,-79.1404 -35.8417,-173.1624 -89.2502,-237.1676 -111.8954,-22.1683 -208.5183,-91.8342 -286.1943,-171.4796 86.7063,75.0983 182.6996,148.8412 300.1943,166.9489 126.6491,41.1785 33.4965,-33.0722 -21.6553,-64.1624 -33.3644,11.8394 -85.1423,-108.2474 -142.3447,-123.8331 -53.5677,-40.5029 -130.5237,-193.5116 -118.0302,-52.1132 -8.7832,147.5806 -91.7602,-187.47655 -49.8041,-92.8868 -25.5382,-147.76953 -73.2535,-290.0124 -120.7956,-431.47337 -32.0335,-62.53284 17.3696,190.10576 21.2306,152.592 15.724,83.12944 35.5487,165.12768 39.7912,250.31527 -49.456,-45.34608 -86.5929,-123.55175 -106.88,-191.21776 26.2833,52.68571 112.9112,238.18826 86.4888,80.64337 -19.5201,-101.5987 -34.2346,-204.66508 -59.5912,-304.9897 -43.2448,-116.62051 -82.6367,-241.49936 -165.9086,-336.75712 -26.7155,5.3012 59.7999,168.16693 -29.1668,78.41363 -47.7373,-38.67378 -95.8397,-59.43946 -32,9.87946 60.6148,80.89916 107.8965,173.68706 133.3562,270.78706 C 1185.2155,576.38978 1167.2323,487.03065 1109.1152,420 c 38.2187,86.29362 86.0381,170.15958 94.0521,266.66667 11.2597,91.24234 37.7893,182.41614 98.166,253.11902 24.1174,60.78971 105.2077,222.31111 92.8508,183.82061 C 1348.5407,1062.8882 1327.7144,986.64621 1268,936.11993 1223.7138,873.65544 1164.748,823.9182 1137.5698,750.3137 c -33.7406,-52.03726 -97.8777,-97.86608 -41.9327,-8.96 68.0198,149.05653 153.5557,303.9467 296.3629,394.0898 35.8068,-9.9097 155.462,175.5592 57.866,55.3553 -48.3528,-82.2309 -123.6154,-17.0791 -43.2379,46.4985 40.8446,72.3765 95.7102,129.9834 138.2443,203.7995 34.5923,43.9423 40.4995,100.274 60.0681,149.2927 109.8017,141.4145 240.0777,268.365 384.5168,374.1615 z M 1287.9708,837.92332 c -35.2866,-78.35567 7.2958,-23.86203 0,0 z m -18.5159,-55.77679 c -20.2347,-42.40495 -58.8127,-198.93074 -16.7567,-68.80146 4.0358,20.30752 17.6394,55.36786 16.7567,68.80146 z M 562.54159,1940.8416 c -25.18864,-74.8992 -17.77912,-155.8488 -104.27636,-187.9732 -67.06819,-46.7599 37.48976,129.0188 33.94859,98.0354 17.32828,23.656 48.0796,108.6903 70.32777,89.9378 z M 284,1844.6031 c -37.16094,-47.3927 -49.98267,-106.3219 -70.4189,-159.586 -45.39217,5.3566 -146.60654,-104.1222 -131.64237,-50.8561 56.90596,77.9467 120.07452,149.8936 195.62544,210.7638 z m -177.33334,-65.4715 c -35.620413,-60.324 -38.077757,-138.626 -83.25928,-191.6421 -10.551665,85.9573 -18.82219,177.6998 83.25928,191.6421 z m 438.67094,-7.79 C 472.52277,1691.2758 406.30758,1606.7415 329.33333,1530.5117 276.86646,1484.5679 240.13381,1413.0478 180.17842,1380 167.81577,1442.8444 192.9673,1491.0731 244,1534.782 c 92.16592,90.5234 187.39775,185.1142 303.88056,242.9772 z m 878.5874,-5.6522 c -93.7469,-152.6533 -215.5494,-286.453 -336.6598,-417.8005 -65.9451,-62.2809 -125.01254,-129.5135 -184.59855,-199.0699 -62.76002,-86.5008 -167.90628,-117.1812 -243.99929,-188.67327 26.75113,55.86047 100.85061,131.21687 127.89064,205.32947 14.98692,85.7251 52.68402,156.3455 129.32077,199.5167 134.31193,120.2349 272.68243,234.4456 418.12123,340.9568 19.3938,10.1809 97.3751,90.6189 89.925,59.7407 z m -453.25835,-42.362 c -78.71168,-89.835 -117.58658,-203.9679 -161.33333,-312.6513 -34.1323,-42.5289 -104.01952,-137.5465 -158.97013,-106.3825 -75.97983,-29.6551 -38.27422,10.4303 -17.02987,59.5784 33.74377,55.2048 35.60967,130.8366 102.1243,166.407 67.3777,74.9124 148.64738,149.5414 235.20903,193.0484 z m -449.33332,-24.7483 c -7.95969,-117.9251 -58.93022,-227.404 -79.2989,-340.2796 -36.6323,-33.4523 -129.64065,-94.3939 -85.39992,4.7593 63.8827,119.0438 -48.6273,6.5111 -111.89389,13.0609 -46.35677,0.9704 93.84597,138.0069 76.20628,107.6554 64.72647,74.0012 134.33388,144.8163 199.15006,217.6065 z m -303.51085,-42.4057 c -72.10111,-74.08 -59.02921,-187.3406 -72.09979,-280.7855 -24.20416,-24.7982 -132.13068,-145.903 -121.89471,-70.0546 -17.7911143,81.3543 30.86321,144.6723 61.58004,214.9671 -1.465006,73.3854 59.40781,112.3846 121.38223,134.8194 l 7.33858,2.8449 3.69361,-1.7913 z M 1503.24,1606.5156 c -11.5067,-7.4974 -3.3694,9.8832 0,0 z M 70.44076,1578.2722 C 74.846995,1541.2949 14.54764,1398.0437 23.56724,1506 c -3.226196,31.0924 21.195166,62.2678 46.87352,72.2722 z m 2028.00044,-70.1753 c -38.8485,-129.0149 -112.0968,-242.3647 -189.1079,-351.5274 -42.5875,-66.8993 -76.7219,-132.8969 -128.5416,-190.99452 -117.7093,-127.31793 -226.9624,-270.44613 -277.3009,-438.65027 -28.0523,-54.0096 -163.4367,-124.19087 -97.1656,-11.51437 28.0058,74.4679 94.6247,133.36635 132.9422,206.11555 64.2521,117.53243 128.7073,236.23516 173.9847,362.47411 34.2997,78.1177 55.6805,161.1562 65.2437,245.5713 92.6809,81.7768 201.0767,141.1382 317.3784,181.7145 l 2.5663,-3.1889 z M 648.5576,1476.524 c -25.73796,-97.617 -74.42873,-198.0835 -153.75555,-266.7324 -50.92226,17.4462 -114.78846,-7.1751 -163.57843,-31.1249 -64.71634,-34.2688 -0.90747,107.8682 46.10751,107.6142 75.67727,40.7775 160.74985,70.365 216.65529,139.0524 19.48546,15.1935 32.2236,40.0862 54.57118,51.1907 z m 1453.5082,-14.6479 c -18.4676,-146.1378 42.3136,-298.8839 -16.6194,-439.6511 -0.4326,-76.01673 -78.857,-136.81823 -116.7788,-201.46774 -75.4296,-106.90174 46.1016,202.91804 -9.9996,141.77048 -15.6851,-50.13866 -107.022,-82.02195 -180.5262,-191.03942 52.6856,49.76445 207.0684,226.71002 164.5288,75.68328 -4.2619,-72.07062 -54.8491,-164.14052 -61.1397,-217.29194 37.282,48.25824 102.538,93.0962 49.9879,11.55867 -38.0389,-90.45882 -47.7029,-202.70064 -142.1468,-256.7171 -29.7629,-28.68929 -144.7277,-144.30359 -80.0383,-41.05935 47.8075,67.04224 -16.8958,54.79 -14.6667,40.70195 10.0426,95.79668 123.0191,134.30791 161.7824,220.0852 2.0588,28.94692 -88.4971,-115.83238 -132.9412,-139.63973 -43.8272,21.19527 98.9068,137.78379 19.1586,134.33493 -107.6869,-80.06855 -2.988,86.89354 19.2993,132.53519 37.8036,99.30623 69.2862,202.1531 88.0273,306.07848 75.6076,141.1824 187.4513,260.805 240.661,414.1961 l 9.1474,19.3553 2.2642,-9.4332 z M 865.07983,1398.3333 C 791.17011,1298.6177 799.39235,1161.6064 716.66666,1065.9095 681.95611,1018.1537 606.03727,903.02901 580.99999,905.28622 c 71.26688,62.82474 83.55785,166.46798 125.01665,250.14418 -0.38202,61.116 -70.59947,-55.0035 -112.06312,-47.4304 -31.9167,-4.5742 36.98062,135.081 31.9585,106.4716 60.23716,77.0919 145.96759,125.6721 223.4213,180.7273 l 14.93064,7.3855 z m 300.49797,-22.6222 C 1054.9331,1196.816 979.34116,986.88197 803.59959,858.66668 c 33.97387,97.99168 113.30715,180.74822 185.73373,252.27662 30.45938,60.9141 -134.70446,-27.0099 -111.63617,-18.9433 -57.65527,-9.046 116.46588,176.9622 104.2842,138.2216 57.76425,51.2138 109.35155,135.2457 183.59645,145.4895 z M 329.48049,1369 c -12.71649,-91.8043 -48.19074,-188.3651 -105.52045,-259.6667 -65.03784,-19.7585 48.21933,80.7296 46.70662,118.3821 29.75567,26.5932 29.63523,103.476 -22.45181,61.6179 C 184.17994,1259.7761 125.60972,1222.0722 82,1167.2571 11.214583,1049.1684 5.9160038,1226.0048 60.07812,1262.176 c 53.88229,75.4212 150.04174,88.152 234.58854,97.2305 10.65459,3.609 25.95379,7.9693 34.81383,9.5935 z m 1432.77511,-69.1896 c -14.0212,-132.2751 -77.9214,-252.1536 -126.4108,-373.60187 -60.1118,-112.74165 -113.2443,-229.33148 -194.4228,-329.2627 -27.9551,-10.06267 19.0591,120.88566 33.8433,161.44319 28.9325,97.7111 94.5472,180.58821 127.4013,277.57588 31.4877,85.066 86.9524,157.8313 123.2383,240.3319 5.9008,4.4727 35.5328,55.7879 36.3507,23.5136 z m -51.589,-31.8796 c -41.1188,-93.6374 -106.7992,-174.3492 -138.1686,-272.95659 -15.2301,-36.09369 -97.8687,-223.72491 -73.7919,-97.21651 23.6426,86.92902 -9.5868,192.0046 78.9479,250.2423 37.4015,46.5254 86.1086,85.6386 133.0126,119.9308 z M 622.301,1262.8353 C 579.8812,1204.773 572.52515,1122.359 520.79561,1073.415 458.98355,1073.7418 247.91653,857.53109 341.38035,956.70924 c 31.90114,90.34156 82.65984,180.95976 167.24523,229.95746 35.71804,26.1656 64.45644,86.5838 113.67542,76.1686 z m -367.63434,-4.0899 c -19.33746,-51.9742 -60.41368,-145.0398 -91.47981,-107.9029 -18.15494,-33.6389 -190.683823,-127.4683 -100.52018,-39.9662 52.72352,62.3259 113.71441,127.6844 191.99999,147.8691 z m 1247.24024,-72.4121 c -0.3333,-100.4154 20.7067,-229.44236 -29.5257,-310.71405 -10.6612,-152.72963 -57.9475,-300.30258 -106.0771,-445.09313 -26.2584,-65.92594 121.5709,61.82677 157.0239,97.47189 116.8346,119.01988 236.2149,249.42666 288.0645,413.03463 69.6289,140.79636 -112.0071,-369.88784 -54.4161,-195.03263 -58.502,-83.68248 -62.9326,-194.16375 -150.3526,-251.62111 -41.6062,-65.33835 -96.792,-93.52516 -150.6238,-129.18466 -41.7588,-52.20708 -84.2175,-110.93495 -146.724,-139.00357 23.3863,79.30344 46.1347,174.50979 6.0146,251.34655 -51.1055,-9.50923 -54.8171,-119.99899 -96.5624,-164.53864 -26.2665,-38.24813 -126.7212,-224.903064 -83.6396,-87.60996 30.3589,68.36748 91.305,124.57071 112.9262,199.28722 82.1172,144.30725 145.7475,299.86049 179.9852,463.41514 34.2768,98.90721 43.9583,204.74302 66.9545,305.94662 l 4.9764,3.2957 z m -1061.34929,0.8574 c -33.21132,-68.8355 -98.74274,-130.8835 -117.71318,-211.21044 -7.04478,-78.86882 -111.80153,-108.80147 -41.6061,-17.31358 14.03688,41.38562 60.39649,133.80442 8.30316,151.06792 -20.10856,36.8824 92.72608,61.9117 132.87053,74.2851 l 10.92131,1.8692 z m 946.61779,-40.5984 C 1213.9749,1030.2397 1127.7748,831.34655 1041.3333,649.50893 1001.7575,634.18418 914.69981,484.20369 932.64549,531.98013 c 37.53921,66.24888 57.76088,142.03231 95.37631,207.53274 64.5574,77.6306 -86.47591,-36.28417 -38.35515,19.98908 40.84505,56.80644 93.31275,122.42754 115.66665,181.63161 50.9617,24.59722 116.6463,144.05444 194,178.89644 26.4977,13.381 56.5198,33.9192 87.8421,26.5623 z M 663.82991,1113.5035 C 638.54316,1049.9422 617.21746,980.8442 572.85947,929.74153 533.91118,989.896 446.26059,926.47349 390.17129,917.63168 c -132.16665,-68.48218 -4.30272,51.18177 43.36077,80.36696 58.39455,47.91036 131.91711,62.50316 195.09628,102.60666 12.52622,2.4823 21.66195,14.2859 35.20157,12.8982 z M 285.30449,1089.5844 C 286.15668,1015.1523 253.00557,940.94593 200.75688,888.66668 140.76882,871.26441 75.829786,827.0537 32.54847,794.77396 c -8.161433,36.69961 -10.118726,109.6687 -0.54852,158.71489 62.056118,45.39293 114.2782,123.28355 198.44236,132.56535 16.59768,4.6237 38.76875,13.1839 54.86218,3.5302 z M 123,1081.7836 C 110.10876,1033.2144 -13.662635,949.96963 46.59274,1045.9838 71.320636,1058.1459 98.691678,1074.016 123,1081.7836 Z m 787.73425,-7.865 C 853.44995,1002.7897 796.71182,932.2478 764.59164,846.00001 724.92525,790.46455 603.80494,632.54989 599.67475,658.97127 617.0446,720.20108 717.62517,830.5123 596.00596,757.43219 548.8919,710.5488 491.92664,674.9406 431.32761,651.57841 c -14.13559,2.74787 72.35214,115.25165 102.1719,153.68353 79.46122,89.19333 174.02613,167.41716 275.83381,230.74016 31.59264,17.1336 68.713,30.313 101.40093,37.9165 z M 1820.0198,979.71641 C 1776.24,833.36284 1686.3062,706.24626 1579.5301,599.03479 c -58.5851,-79.82784 -78.3429,-53.89285 -28.5253,21.03654 56.129,125.33309 141.4641,235.74421 236.1514,333.66133 -12.264,-32.6311 45.1916,79.45374 32.8636,25.98375 z m 277.7299,3.50743 c 26.6922,-127.86403 -9.812,-235.83786 -126.3267,-297.8905 64.251,104.97088 -23.4271,17.32141 -68.963,-16 22.0074,74.90846 46.3798,102.10528 92.3646,167.13138 34.9821,43.40718 82.286,115.28663 102.9251,146.75912 z M 518.41509,929.10481 c 74.9953,-11.74966 -1.61973,-142.26425 -66.56451,-120.86759 -49.50912,-0.0679 -226.85919,-107.74166 -181.36248,-21.20719 9.28742,73.43959 75.65615,94.33907 136.78733,110.92424 36.51739,11.48251 72.31098,29.96328 111.13966,31.15054 z M 278.85276,874.66668 c -13.44132,-53.08384 -45.1108,-108.18176 -77.45693,-155.81734 -81.51171,-6.29259 -122.833417,12.25682 -53.47334,67.81736 44.12788,59.26926 -158.110904,-24.07233 -2.5388,55.98706 40.41846,20.11894 88.37586,31.66743 133.46907,32.01292 z m 756.25984,-47.6718 c -19.2309,-19.98795 6.0155,17.58238 0,0 z m 176.2541,0.005 C 1175.9823,704.4099 1172.9699,570.97184 1100,461.98841 1057.4742,394.47362 1032.9512,313.75929 975.67049,257.33305 c -55.17721,-27.79644 29.22501,114.95251 36.87311,156.33362 31.9878,46.5417 60.6713,142.12016 -15.2058,57.006 -38.2976,-57.72748 -159.69546,-116.09797 -64.87137,-19.90888 19.92788,93.45304 109.51697,157.0955 173.40257,223.07942 50.3259,43.23879 69.8185,105.59834 104.4357,159.49013 l 1.062,-6.33333 z M 859.56627,794.56706 C 832.51303,700.84017 773.50386,621.48432 720.33332,541.32861 c -50.77523,-48.98266 -87.71925,-77.25065 -38.33412,2.41809 22.15963,107.72227 -98.63506,-85.46022 -148.04632,-66.73261 27.57196,66.73633 100.25143,107.3691 144.05448,164.31925 57.98985,55.06729 106.37693,119.80314 181.55891,153.23372 z m -374.67672,-7.33378 c -52.52556,-69.9717 -89.7694,-159.53254 -158.08269,-214.39767 -87.81317,-42.66928 26.41846,58.57659 27.13247,97.59302 52.66176,98.69481 -186.12367,1.13786 -103.64004,47.70926 76.40234,24.39891 154.01006,61.56233 234.59026,69.09539 z M 106.2125,777.92702 C 99.266855,696.57658 -8.3779355,720.1537 49.33334,768.95691 c 19.457748,-3.21697 38.375768,13.8868 56.87916,8.97011 z m 1992.1817,-15.60747 c 32.6213,-74.35766 -50.7556,-254.31304 -64.8754,-237.65288 -6.6642,149.30618 -115.291,-67.96461 -151.2307,-50.8719 37.6521,89.17867 49.2033,200.29009 147.6037,246.94933 18.7252,2.90416 61.2056,67.59017 68.5024,41.57545 z M 603.99999,729.53819 c -31.641,-59.78178 -55.05079,-124.51416 -75.39441,-187.34645 -58.89951,-22.4899 32.32466,131.72929 26.13868,121.04068 20.97543,26.88889 9.06554,52.95387 49.25573,66.30577 z M 986.5499,707.15141 C 940.46258,602.01484 899.91553,487.08017 814.32865,406.91587 c -6.12949,56.77853 98.08849,163.79433 25.25303,197.23763 -53.74685,1.73238 96.13155,86.28627 136.99674,103.37627 z m -848.73953,-5.23252 c 20.41386,-11.61026 -28.4553,-126.10594 -54.39606,-44.66404 -43.912195,44.63918 25.07635,49.49608 54.39606,44.66404 z m 73.15104,-4.65807 c -32.57276,-24.99109 -17.39791,0.18731 0,0 z m 119.63545,-10.14157 c -26.23359,-41.11368 -47.8941,-143.71326 -93.23163,-137.61924 80.27868,82.82489 -4.54223,128.41703 -84.92476,76.53702 26.561,46.46703 112.13408,62.55442 170.04669,64.73492 l 8.10972,-3.6527 z m -292.15241,0.70452 c 20.105103,-44.73891 66.94576,-91.18705 86.57127,-142.49043 41.10087,-33.93901 76.53418,-72.07395 115.71713,-108.07314 73.67254,29.43019 86.44898,-135.20598 36.60048,-43.30445 -89.24301,36.56561 -22.86312,-139.08453 42.5397,-45.76236 49.14069,7.56632 113.51163,-69.52035 64.84356,-71.19339 -72.12642,-27.13299 29.87474,-122.71938 74.56518,-58.80593 -66.26413,48.50583 0.10446,60.8677 20.79672,-7.52741 53.69454,-19.26466 95.70186,-43.64987 158.71753,-85.81472 59.59067,-4.67282 73.69943,-51.622149 127.87063,-65.80033 C 849.999,24.243656 703.05168,32.492716 683.22607,75.267851 643.42671,-12.850682 468.85617,49.546602 367.37781,28.977454 268.18958,54.496143 75.618702,-57.18216 29.475871,32.64059 30.607567,192.66897 24.866646,388.80824 34.274046,546.769 143.06393,559.09575 -26.222521,649.33485 38.44445,687.82377 Z m 62.63279,-155.49043 c -78.130373,-90.98931 112.65704,-124.42773 42.11342,-33.789 -12.9696,-0.0623 -34.48594,53.53514 -42.11342,33.789 z m 28.25609,-56.33333 c 2.4326,-32.09439 -24.08482,6.8813 0,0 z M 531.01108,156.01453 C 498.43236,94.70978 608.6488,54.317161 634.66666,104.67508 c -27.78402,22.94269 -68.35867,51.316 -103.65558,51.33945 z m 31.65558,-30.6812 c 65.25912,-24.87561 -23.37584,-11.44006 0,0 z M 188,683.85891 c -8.45868,-7.98348 -3.17464,5.4496 0,0 z M 664.42824,660.90787 C 630.61475,611.48612 501.00655,501.95141 600.6086,609.33334 c 19.04468,18.92765 45.18278,40.39361 63.81964,51.57453 z m -139.09949,-1.2412 c -26.34266,-61.11455 -42.49636,-145.79225 -123.49884,-148.9576 -102.80841,-81.01596 -71.88996,39.17566 -5.43213,72.0542 43.18879,22.6791 84.59427,67.39434 128.93097,76.9034 z M 234.71724,620.69793 c 48.20772,-56.56933 -140.597237,-82.28869 -89.38391,-24.74404 28.49415,10.55882 58.09727,26.65052 89.38391,24.74404 z M 2099.9657,602.12219 c -14.8701,-87.25022 30.478,-191.59663 -25.6719,-266.20671 -28.9466,-83.45492 -70.8281,-129.12048 -152.6025,-146.6137 -105.1189,-56.51717 -24.5058,39.99061 6.9753,88.51373 54.5656,77.41756 72.5486,173.51272 124.584,251.20259 14.155,16.97918 30.1171,76.87369 46.7151,73.10409 z M 840.79197,572.64203 C 822.41442,487.91048 786.57741,406.01886 751.26244,326.60783 696.29082,233.40082 646.64957,279.7898 584.50387,275.81991 c -61.95075,-14.61281 -94.20743,23.35162 -27.19253,69.60268 64.80997,77.84036 137.77041,148.8369 217.18696,211.22403 20.7572,4.24405 47.15692,19.07501 66.29367,15.99541 z M 208.48868,546.68015 c 25.78761,-107.94806 -83.43749,25.666 0,0 z m 1503.81342,-2.82712 c -40.4369,-70.04344 -22.0834,-167.07538 -85.6355,-222.75131 -89.3467,-86.03954 -50.3852,11.61988 -32.3682,12.67606 -33.7798,-1.74307 -154.814,-119.57261 -137.5622,-60.44444 43.3642,85.76025 123.8406,149.81559 185.2394,224.33333 19.181,15.87096 51.5388,44.37218 70.3265,46.18636 z M 327.75967,540.21885 c 6.4871,-68.92893 -112.17779,-122.21824 -97.09301,-30.92536 8.18296,22.48874 78.63889,35.69754 97.09301,30.92536 z m 1673.54683,-6.55218 c -18.3764,-139.64486 -97.5277,-262.66069 -181.8987,-370.76511 -58.5658,-4.42733 -131.0716,-61.3163 -192.4733,-94.877065 -42.0939,-34.106106 49.7023,102.288305 -46.1893,55.728025 39.3983,70.68328 101.9304,124.613 159.8422,181.17818 83.8685,79.26144 172.8059,155.03287 259.1893,230.92808 z M 638.17798,507.12358 C 607.13994,441.25288 561.69057,380.27294 509.81012,329.1819 c 21.88787,77.59409 -152.22201,-22.73064 -48.85003,58.96014 52.77171,42.52777 130.75172,97.80634 177.21789,118.98154 z M 511.50334,496.46545 c -2.65192,-63.60361 -143.78548,-143.37458 -53.49385,-41.79878 14.49207,11.73229 36.5209,52.95571 53.49385,41.79878 z m -50.17335,-0.92842 c -12.07202,-78.93256 -165.05363,-32.88837 -146.20065,-54.20369 41.99593,28.54199 95.0941,55.8708 146.20065,54.20369 z m 458.64958,-2.99704 c -31.45361,-68.52131 -39.05456,-14.91256 0,0 z M 1305.5906,431.66667 C 1335.0733,311.16148 1276.1061,192.18906 1222.3798,88.000001 1203.389,3.5011852 964.099,1.1750138 1088.7084,102.51005 c 81.6699,70.86055 135.3773,168.03334 182.6603,263.89898 15.0546,16.39418 15.1127,59.45189 34.2219,65.25764 z M 995.99998,428.96959 C 944.0481,310.12426 921.5195,175.71383 839.24282,72.568948 c -63.36004,1.817266 -4.07187,86.263482 1.42193,122.097722 12.20217,94.25955 19.75931,181.20824 121.40799,208.92922 11.34174,4.66898 22.04529,26.69594 33.92724,25.3737 z M 871.99999,411.58818 c -39.59758,-81.23676 -34.9785,-176.73638 -71.33334,-258.30542 -69.59132,5.3565 29.93436,114.10812 -9.96162,145.66938 -96.3384,-46.54051 67.23717,132.53554 81.29496,112.63604 z m -520.42801,-4.35051 c 87.50536,-10.03442 -46.51865,-87.53885 -17.69744,-0.14228 6.0772,-1.1 11.80014,4.27597 17.69744,0.14228 z m 64.26563,-27.571 c -19.10111,-21.20904 0.29133,13.21535 0,0 z m -153.71524,-9.33333 c 30.04458,-39.842 -26.19095,-4.68346 0,0 z M 2100.8584,333.06527 c 33.0719,-86.73424 -109.7546,-111.84374 -26.4358,-22.3986 4.9976,4.75997 30.3297,74.067 26.4358,22.3986 z m -968.3008,7.45875 c -12.7991,-108.32277 -41.4239,-224.35752 -119.3894,-307.2921 -37.14753,17.725667 70.9019,124.53728 28.4524,188.47579 -23.2279,70.49478 41.3743,91.58786 90.937,118.81631 z M 477.57341,320.55928 c 0.90496,-89.12858 -122.10614,19.74769 -20.21335,8.97315 7.04092,-7.39687 29.60774,13.80933 20.21335,-8.97315 z M 1669.6261,313.44422 C 1610.5175,216.68093 1563.9605,104.43184 1467.37,37.762643 c 2.3305,23.708447 61.5811,107.509397 72.5182,163.413707 16.5875,63.41904 87.8791,74.96672 128.7138,119.79244 l 3.1812,-1.18155 z M 1441.655,304.12091 C 1414.4563,201.08 1361.8283,100.08771 1273.405,36.722036 1144.1108,3.0045611 1300.3787,140.68183 1299.0838,195.5331 c 51.6544,25.68602 109.9602,73.50989 142.5712,108.58781 z M 494.66666,280 c -8.20372,-12.9831 -11.00447,8.85313 0,0 z m 1052.79754,-1.86025 c -38.1338,-82.59612 -56.6243,-182.286508 -126.3443,-244.888368 -92.124,-11.531151 -130.4434,-0.721641 -51.7516,60.96208 41.0818,61.938648 69.7862,133.032848 140.4239,167.119878 12.8235,-6.0894 23.5792,25.48306 37.672,16.80641 z M 772.28523,259.42931 C 772.10955,191.36448 740.2115,108.55595 658.07244,143.84173 c -52.52657,19.35895 -56.43935,64.91838 -15.70929,91.254 34.77468,-0.045 111.60274,50.22903 129.92208,24.33358 z m 243.80967,-1.09597 c 20.16,-79.36108 2.6121,-211.396097 -89.7836,-225.189163 -44.15442,39.49494 -89.34714,20.205242 -27.64465,89.522493 17.04188,65.6428 68.1006,105.9573 117.42825,135.66667 z m -500.73159,0.39532 c 63.74587,-67.349 -85.8855,0.71986 -3e-5,0 z m 96.43517,-3.62983 c 12.33247,-64.60168 -95.88338,-81.39765 -47.71602,-8.46632 16.41007,-1.19703 32.13493,14.74861 47.71602,8.46632 z M 403.71182,234.95366 c 28.44695,-27.16558 -40.23332,7.2374 0,0 z m 1695.65078,0.99897 c -21.319,-69.52081 -71.9823,-141.719578 -129.9205,-193.285963 -68.875,-41.1285166 -62.9543,2.049421 -22.3017,51.895013 13.7457,65.41509 71.8489,103.34429 122.8414,136.10499 9.1311,4.06625 19.3985,5.86432 29.3808,5.28596 z M 964.38632,222.66667 c -5.49756,-9.65153 1.64929,9.47959 0,0 z M 1947.9765,172.69496 C 1939.7056,81.585869 1867.0859,0.23209285 1769.3333,29.144958 c 1.5628,10.135435 29.7904,100.405162 70.9787,108.188352 35.2442,11.93168 74.2303,26.25879 107.6645,35.36165 z m 153.0865,-2.83138 c 19.1068,-57.2847 -26.309,-209.088603 -7.6176,-92.225686 -60.3198,25.531966 -7.0566,56.546236 7.6176,92.225686 z M 781.28083,131.22412 c 37.49254,-102.931275 -107.63047,-0.69792 0,0 z M 1781.5873,129.66667 C 1793.6121,40.7391 1648.4935,-4.1230956 1633.3145,45.964776 c 42.2859,37.587403 104.4243,50.501967 144.6756,87.368554 z M 1596.8106,92.333334 c 13.6313,-80.952417 -159.2478,-73.911691 -58.144,-23.156813 8.138,22.600416 38.3241,11.523345 58.144,23.156813 z m 469.2567,-26.666667 c -38.1613,-81.42363 -102.5035,-7.206341 -3.5895,3.624263 l 3.6902,-0.502048 z M 838.85519,42.570736 c 39.10367,-30.831924 -60.28818,9.221181 0,0 z m -132.9844,-2.138505 c 6.42193,-24.663051 -23.54431,8.440443 0,0 z"
       style="fill:#000000;stroke-width:1.33333"
       clip-path="url(#clipPath618)"
       id="path592" />
  </g>
</svg>
